<svg width="144" height="126" viewBox="0 0 144 126" fill="none" xmlns="http://www.w3.org/2000/svg">
<path d="M0 18C0 8.07188 8.07188 0 18 0H126C135.928 0 144 8.07188 144 18V108C144 117.928 135.928 126 126 126H18C8.07188 126 0 117.928 0 108V18ZM91.0687 47.9531C89.8031 46.0969 87.7219 45 85.5 45C83.2781 45 81.1688 46.0969 79.9313 47.9531L55.4625 83.8406L48.0094 74.5312C46.7156 72.9281 44.775 72 42.75 72C40.725 72 38.7563 72.9281 37.4906 74.5312L19.4906 97.0312C17.8594 99.0563 17.55 101.841 18.675 104.175C19.8 106.509 22.1625 108 24.75 108H51.75H60.75H119.25C121.753 108 124.059 106.622 125.213 104.4C126.366 102.178 126.225 99.5062 124.819 97.4531L91.0687 47.9531ZM31.5 45C35.0804 45 38.5142 43.5777 41.0459 41.0459C43.5777 38.5142 45 35.0804 45 31.5C45 27.9196 43.5777 24.4858 41.0459 21.9541C38.5142 19.4223 35.0804 18 31.5 18C27.9196 18 24.4858 19.4223 21.9541 21.9541C19.4223 24.4858 18 27.9196 18 31.5C18 35.0804 19.4223 38.5142 21.9541 41.0459C24.4858 43.5777 27.9196 45 31.5 45Z" fill="#BF9D78"/>
</svg>
