<?xml version="1.0" encoding="utf-8"?>
<!-- Generator: Adobe Illustrator 24.3.0, SVG Export Plug-In . SVG Version: 6.00 Build 0)  -->
<svg version="1.1" id="Layer_1" xmlns="http://www.w3.org/2000/svg" xmlns:xlink="http://www.w3.org/1999/xlink" x="0px" y="0px"
	 viewBox="0 0 595.28 595.28" style="enable-background:new 0 0 595.28 595.28;" xml:space="preserve">
<style type="text/css">
	.st0{fill:#BF9D78;}
</style>
<path class="st0" d="M560.53,174.58c-0.35,2.44-0.83,7.09-1.74,11.65c-0.44,2.19,0.08,3.25,1.93,4.43
	c8.68,5.51,16.07,12.34,20.61,21.76c6.24,12.96,5.57,26.07,0.45,39.19c-1.05,2.7-3.37,5.44-3.11,7.95c0.25,2.37,3.21,4.41,4.85,6.68
	c15.5,21.45,14.36,44.98-3.28,65.54c-1.62,1.89-1.82,3.24-0.71,5.48c6.1,12.43,8.43,25.35,4,38.88
	c-3.92,11.99-12.3,20.34-22.59,26.97c-2.05,1.32-2.57,2.47-2.05,4.86c2.45,11.32,2.62,22.56-2.27,33.39
	c-6.05,13.39-16.9,21.34-30.34,26.09c-2.89,1.02-4.02,2.23-4.27,5.41c-1.2,14.99-6.66,27.99-18.78,37.58
	c-9.04,7.15-19.58,10.18-30.86,10.98c-2.11,0.15-3.02,0.83-3.68,2.81c-2.79,8.35-6.84,16.03-13.16,22.31
	c-12.41,12.34-27.55,15.36-44.12,12.07c-4.54-0.9-6.72,0.09-9.2,3.86c-7.21,10.94-16.9,18.85-30.07,21.62
	c-12.07,2.54-23.45,0.07-34.29-5.33c-2.14-1.07-3.42-0.93-5.25,0.66c-8.48,7.35-18.05,12.54-29.4,13.85
	c-14.41,1.66-27.04-2.81-37.93-11.95c-3.71-3.12-6.34-3.4-10.7-1.35c-12.69,5.97-25.88,7.15-39.16,1.68
	c-10.42-4.29-17.87-12.03-23.82-21.32c-1.33-2.08-2.51-2.73-5.03-2.17c-11.13,2.5-22.21,2.61-32.89-2.09
	c-13.15-5.78-21.32-16.19-26.03-29.37c-1.38-3.87-3.12-5.26-7.27-5.61c-13.33-1.11-25.02-6.1-34.18-16.25
	c-8.41-9.32-12.04-20.53-12.94-32.75c-0.19-2.6-1.17-3.57-3.44-4.35c-10.37-3.55-19.46-9.05-26.14-17.97
	c-8.91-11.9-10.45-25.36-7.6-39.44c0.84-4.17,0.02-6.26-3.55-8.6c-11.04-7.22-19.11-16.88-21.95-30.14
	c-2.61-12.16-0.12-23.63,5.34-34.54c1.1-2.2,0.83-3.44-0.73-5.24c-7.42-8.54-12.61-18.2-13.86-29.66
	c-1.56-14.22,2.88-26.71,11.82-37.46c3.24-3.9,3.46-6.68,1.38-11.15c-5.88-12.64-6.96-25.74-1.52-38.92
	c4.33-10.51,12.21-17.95,21.57-23.94c1.95-1.25,2.43-2.35,1.93-4.65c-2.47-11.31-2.67-22.56,2.19-33.4
	c5.92-13.21,16.53-21.22,29.78-25.97c3.31-1.18,4.68-2.54,4.98-6.27c1.18-14.7,6.71-27.43,18.56-36.86
	c9.09-7.24,19.72-10.28,31.09-11.08c1.97-0.14,2.89-0.76,3.52-2.66c3.19-9.59,8.02-18.2,15.79-24.88
	c12.18-10.48,26.46-12.64,41.65-9.61c4.43,0.88,6.55-0.03,9-3.75c7.19-10.95,16.83-18.9,30-21.72c11.88-2.54,23.12-0.24,33.82,5.02
	c2.58,1.27,4.14,1.16,6.39-0.78c8.35-7.22,17.85-12.2,29.01-13.46c13.59-1.53,25.54,2.58,36.33,10.62c2.18,1.63,4.15,4.41,6.48,4.71
	c2.32,0.3,4.93-1.89,7.46-2.89c16.41-6.49,32.17-6.03,46.87,4.61c6.07,4.39,10.8,10.09,14.71,16.43c1.15,1.86,2.28,2.15,4.28,1.71
	c9.67-2.14,19.38-2.65,28.96,0.4c13.72,4.37,22.76,13.87,28.7,26.67c0.44,0.96,1.05,1.91,1.2,2.92c0.84,5.47,4.25,6.66,9.39,7.24
	c18.41,2.09,32.41,11.06,40.49,28.19c3.15,6.68,4.67,13.84,5.04,21.19c0.1,2.02,0.82,2.87,2.69,3.48c6.82,2.23,13.2,5.39,18.79,9.96
	C555.18,145.28,560.6,157.56,560.53,174.58z M112.2,365.25c0,2.2-0.16,4.42,0.06,6.59c0.12,1.17,0.58,2.64,1.41,3.35
	c12.83,10.9,20.9,24.56,24.14,41.07c0.35,1.79,1.12,2.9,2.81,3.74c15.16,7.57,26.5,19,34.09,34.13c0.8,1.58,1.82,2.32,3.54,2.66
	c16.5,3.23,30.19,11.24,41.11,24.06c0.75,0.89,2.38,1.59,3.53,1.5c16.97-1.31,32.46,2.76,46.6,12.22c0.92,0.61,2.54,0.82,3.6,0.47
	c16.46-5.39,32.86-5.35,49.31,0.04c0.98,0.32,2.51,0.13,3.36-0.45c14.12-9.49,29.61-13.58,46.58-12.28
	c1.17,0.09,2.82-0.56,3.57-1.44c10.92-12.81,24.59-20.87,41.09-24.11c1.82-0.36,2.88-1.19,3.71-2.85
	c7.44-14.77,18.46-26.07,33.25-33.52c2.33-1.17,3.3-2.71,3.79-5.13c3.17-15.64,10.8-28.73,22.94-39.09c1.85-1.58,2.64-3.13,2.44-5.6
	c-1.31-16.4,2.79-31.41,11.98-45.03c0.96-1.42,1.24-2.69,0.66-4.4c-5.43-16.15-5.41-32.33,0-48.47c0.58-1.72,0.16-2.95-0.66-4.41
	c-2.5-4.44-5.08-8.86-7.19-13.49c-4.64-10.19-5.35-21.04-4.88-32.06c0.06-1.31-0.38-3.14-1.28-3.9
	c-13.02-11-21.08-24.86-24.33-41.54c-0.32-1.66-1.11-2.55-2.59-3.29c-14.94-7.52-26.34-18.66-33.88-33.62
	c-1.02-2.02-2.33-2.99-4.51-3.42c-16.34-3.21-29.75-11.38-40.58-23.98c-0.79-0.92-2.57-1.51-3.83-1.41
	c-16.79,1.27-32.1-2.84-46.09-12.16c-0.98-0.65-2.71-0.87-3.84-0.5c-16.37,5.35-32.69,5.31-49.05-0.03
	c-1.05-0.34-2.57-0.05-3.61,0.47c-4.31,2.19-8.42,4.79-12.78,6.85c-10.55,4.98-21.79,5.99-33.28,5.3c-1.51-0.09-2.81-0.1-3.98,1.31
	c-10.81,13.04-24.63,21.06-41.21,24.33c-1.73,0.34-2.73,1.12-3.52,2.69c-7.43,14.78-18.41,26.1-33.19,33.58
	c-2.39,1.21-3.43,2.81-3.95,5.32c-3.18,15.53-10.75,28.56-22.81,38.88c-1.92,1.64-2.74,3.24-2.53,5.82
	c1.3,16.31-2.8,31.24-11.93,44.77c-1.11,1.64-1.19,3.08-0.58,4.91c5.14,15.53,5.32,31.13,0.27,46.7c-0.84,2.59-0.61,4.52,0.88,6.82
	C108.44,338.36,112.84,351.09,112.2,365.25z M19.81,329.33c2.37-3.44,4.52-6.75,6.87-9.9c1.01-1.35,1.06-2.26,0.03-3.65
	c-3.32-4.52-5.67-9.5-6.42-15.13c-1.32-9.9,2.56-18.08,8.62-25.45c8.08-9.84,18.35-17.11,28.77-24.19c1.65-1.12,3.31-2.23,5.1-3.43
	c-2.18-4.24-4.25-8.24-6.48-12.58c-6.45,4.51-12.57,8.62-18.51,12.99c-8.6,6.34-16.44,13.52-22.66,22.29
	C0.8,290.48,4.34,312.45,19.81,329.33z M538.71,358.39c0.48-0.06,0.68-0.03,0.82-0.12c1.13-0.68,2.28-1.33,3.38-2.06
	c12.76-8.52,25.24-17.37,34.98-29.48c15.46-19.23,15.1-42-0.98-60.74c-0.42-0.49-0.94-0.89-1.45-1.36c-2.28,3.34-4.3,6.55-6.6,9.54
	c-1.25,1.63-1.13,2.71,0.01,4.33c6.85,9.71,8.9,20.18,3.33,31.06c-2.41,4.71-5.76,9.07-9.32,13.01
	c-7.66,8.48-17.11,14.87-26.54,21.21c-1.22,0.82-2.41,1.67-3.74,2.59C534.72,350.56,536.74,354.52,538.71,358.39z M124.11,516.41
	c-0.75-4-1.57-7.67-2.08-11.39c-0.28-2.06-1-2.89-3.17-3.27c-14.25-2.45-23-11.01-25.9-25.22c-1.51-7.4-1.45-14.9-0.51-22.33
	c1-7.93,2.52-15.79,3.71-23.7c0.13-0.84-0.15-2.4-0.63-2.58c-3.91-1.47-7.91-2.7-11.85-3.99c-0.3,0.6-0.46,0.82-0.52,1.06
	c-0.28,1.2-0.55,2.4-0.79,3.61c-2.95,14.95-5.67,29.94-3.91,45.28c1.91,16.58,9.06,29.82,24.63,37.43
	C109.63,514.51,116.61,516.03,124.11,516.41z M235.79,538.22c3.14,4.62,5.97,8.95,8.96,13.16c6.7,9.42,13.85,18.45,22.99,25.67
	c12.6,9.97,26.51,14.35,42.43,9.54c7.51-2.27,13.94-6.42,19.98-11.72c-3.39-2.33-6.57-4.34-9.56-6.62
	c-1.65-1.26-2.77-1.38-4.55-0.09c-6.72,4.86-14.15,7.4-22.57,6.11c-6.74-1.03-12.41-4.32-17.58-8.56
	c-8.67-7.11-15.32-15.97-21.68-25.08c-2-2.86-3.94-5.76-5.99-8.77C244.11,533.98,240.21,535.97,235.79,538.22z M359.53,55.68
	c-3.18-4.67-6.05-9.08-9.1-13.35c-6.66-9.33-13.76-18.3-22.84-25.46c-14.7-11.6-30.67-15.25-48.32-7.28
	c-5.13,2.32-9.73,5.47-14.06,9.46c3.52,2.42,6.81,4.58,9.97,6.93c1.35,1.01,2.29,1.03,3.66,0.02c4.44-3.28,9.35-5.6,14.88-6.38
	c9.9-1.41,18.1,2.41,25.51,8.44c9.88,8.04,17.15,18.33,24.25,28.74c1.17,1.71,2.34,3.43,3.58,5.24
	C351.23,59.91,355.13,57.93,359.53,55.68z M511.93,170.08c0.58-2.74,1.11-5.04,1.55-7.35c2.71-14.2,5.09-28.44,3.35-42.97
	c-1.65-13.84-6.94-25.76-18.9-33.89c-7.99-5.43-16.94-7.8-26.71-8.36c0.76,4.09,1.61,7.85,2.12,11.66c0.25,1.9,0.9,2.61,2.84,2.93
	c14.27,2.33,22.95,10.63,26.04,24.74c1.68,7.66,1.57,15.41,0.62,23.11c-0.97,7.85-2.46,15.63-3.72,23.44
	c-0.17,1.05-0.88,2.26,0.85,2.8C503.82,167.41,507.64,168.68,511.93,170.08z M517.06,470.51c-3.99,0.75-7.66,1.61-11.38,2.08
	c-2.12,0.27-2.85,1.07-3.22,3.2c-2.47,14.2-10.63,22.86-24.78,25.64c-5.38,1.06-11.07,1.54-16.51,1.07
	c-10.06-0.88-20.03-2.7-30.05-4.04c-0.83-0.11-2.34,0.23-2.53,0.73c-1.45,3.84-2.66,7.78-4.07,12.09c4.72,0.92,9.09,1.83,13.47,2.6
	c13.3,2.35,26.66,4.06,40.15,1.77c16.67-2.83,28.93-11.45,35.32-27.48C515.69,482.61,516.91,476.8,517.06,470.51z M78.3,123.39
	c3.91-0.73,7.58-1.56,11.3-2.06c2.07-0.28,2.89-0.99,3.26-3.16c2.44-14.26,10.75-22.81,24.94-25.83c7.57-1.61,15.24-1.51,22.85-0.57
	c7.84,0.97,15.62,2.49,23.44,3.68c0.85,0.13,2.42-0.12,2.6-0.6c1.48-3.91,2.71-7.91,4.08-12.1c-1.88-0.42-3.32-0.78-4.77-1.07
	c-15.04-2.99-30.11-5.62-45.55-3.91C92.99,80.82,79.35,99.99,78.3,123.39z M293.88,47.9c-4.12-3.55-7.92-6.93-11.85-10.17
	c-9.46-7.8-19.24-15.11-30.7-19.81c-21.83-8.95-42.05-3.05-55.82,18.88c-0.17,0.27-0.18,0.63-0.27,1.01
	c3.41,1.24,6.79,2.26,9.99,3.69c2.21,0.99,3.41,0.83,4.97-1.28c6.46-8.73,14.91-13.58,26.13-12.05c6.64,0.91,12.65,3.63,18.37,6.99
	c9.69,5.69,18.2,12.93,26.63,20.28c0.7,0.61,1.44,1.18,2.26,1.85C287.07,54.11,290.36,51.11,293.88,47.9z M546.67,293.16
	c9.84-11.1,19.29-21.99,26.29-34.72c4.99-9.08,8.4-18.64,7.64-29.2c-1.15-15.95-10.27-26.64-23.31-34.63
	c-0.1-0.06-0.32,0.07-0.52,0.12c-1.24,3.36-2.34,6.8-3.78,10.1c-0.9,2.06-0.56,3.15,1.26,4.54c12.4,9.43,15.47,20.91,9.71,35.46
	c-4.01,10.13-10.51,18.66-17.3,26.99c-2.99,3.67-6.11,7.23-9.33,11.03C540.42,286.24,543.41,289.55,546.67,293.16z M38.45,399.5
	c1.24-3.42,2.18-6.73,3.64-9.8c1.22-2.56,0.74-3.88-1.52-5.57c-10.14-7.63-14.26-17.63-10.77-30.14c0.96-3.45,2.32-6.84,3.92-10.05
	c5.12-10.24,12.4-18.97,19.78-27.6c1.47-1.72,2.95-3.43,4.53-5.26c-3.16-3.48-6.17-6.78-9.25-10.17c-0.56,0.49-1,0.78-1.32,1.17
	c-5.49,6.64-11.16,13.15-16.4,19.99c-6.4,8.35-11.74,17.34-14.65,27.57C10.93,368.94,17.89,387.52,38.45,399.5z M408.46,41.14
	c1.63,3.53,3.31,6.81,4.66,10.22c0.77,1.96,1.62,2.57,3.85,2.25c10.01-1.46,19.25,0.17,26.09,8.4c2.44,2.93,4.44,6.36,6.02,9.85
	c4.04,8.91,5.49,18.5,6.54,28.14c0.62,5.74,1.05,11.51,1.58,17.52c4.64,0.22,9.13,0.43,14.3,0.68c-1.24-10.67-2.22-20.81-3.65-30.89
	c-1.21-8.57-3.62-16.85-7.57-24.61C450.07,42.62,430.7,35.31,408.46,41.14z M186.82,552.68c-1.55-3.35-3.22-6.62-4.57-10.02
	c-0.81-2.04-1.74-2.64-4.06-2.33c-15.39,2.09-25.63-3.63-31.77-17.95c-1.99-4.65-3.64-9.6-4.45-14.58c-1.54-9.44-2.35-19-3.53-28.5
	c-0.12-1-0.67-2.72-1.15-2.77c-4.23-0.44-8.49-0.57-13.27-0.82c0.89,8.9,1.5,17.32,2.61,25.66c1.64,12.37,4.48,24.41,11.48,35.04
	C147.9,551.3,165.54,558.83,186.82,552.68z M476.44,470.36c13.28-0.83,26.07-1.73,38.61-4.76c7.92-1.91,15.47-4.69,22.31-9.22
	c14.81-9.82,22.09-27.64,16.01-48.56c-3.59,1.64-7.13,3.34-10.74,4.88c-1.48,0.63-1.67,1.43-1.67,3c0,4.97,0.35,10.11-0.75,14.88
	c-2,8.61-8.47,13.7-16.17,17.3c-7.81,3.66-16.17,5.38-24.66,6.44c-6.63,0.83-13.3,1.27-19.95,1.9c-1.1,0.1-2.33-0.08-2.38,1.69
	C476.91,461.91,476.66,465.92,476.44,470.36z M301.51,545.93c1.7,1.53,3.06,2.78,4.44,3.99c10.3,8.96,20.8,17.65,33.1,23.83
	c7.72,3.88,15.8,6.5,24.55,6.24c16.92-0.5,28.04-9.99,36.78-23.72c-4.33-1.61-8.32-3.17-12.37-4.53c-0.52-0.17-1.53,0.51-2.06,1.06
	c-2.19,2.27-4.08,4.88-6.45,6.93c-8.87,7.69-18.88,7.67-29.23,3.71c-9.56-3.66-17.75-9.62-25.62-16.01
	c-4.29-3.48-8.48-7.09-12.89-10.79C308.36,539.72,305.06,542.71,301.51,545.93z M41.86,186.15c3.71-1.7,7.18-3.39,10.73-4.88
	c1.56-0.66,2.02-1.41,1.76-3.15c-0.8-5.35-0.85-10.72,0.98-15.91c2.82-8.02,8.83-12.94,16.3-16.31c10.67-4.82,22.1-6.24,33.59-7.36
	c4.26-0.41,8.53-0.7,13.01-1.06c0.21-4.67,0.42-9.11,0.63-13.67c-1.79,0-3.27-0.1-4.73,0.02c-5.52,0.45-11.05,0.83-16.55,1.49
	c-11.74,1.41-23.31,3.55-34.01,8.94C43.08,144.58,36.04,164.29,41.86,186.15z M366.96,535.85c0.25,0.39,0.28,0.49,0.35,0.53
	c1.56,0.81,3.11,1.62,4.68,2.4c13.28,6.54,26.72,12.66,41.45,15.18c25.65,4.39,42.78-9.04,50.21-30.76c0.12-0.36,0.1-0.78,0.16-1.29
	c-3.54-0.24-6.9-0.25-10.18-0.77c-2.84-0.45-4.26,0.23-5.56,3.02c-5.73,12.25-15.17,17.65-28.7,16.36
	c-4.77-0.45-9.68-1.27-14.14-2.96c-9.68-3.68-19.11-8-28.63-12.11c-1.25-0.54-2.29-1.31-3.31,0.39
	C371.26,529.21,369.09,532.51,366.96,535.85z M79.57,176.64c-4.79,1.67-9.13,3.1-13.41,4.68c-10.92,4.02-21.65,8.45-31.24,15.19
	c-11.14,7.83-18.93,17.82-20.14,31.92c-0.82,9.58,1.75,18.4,6.13,27.13c3.27-2.83,6.25-5.54,9.38-8.05
	c1.28-1.03,1.32-1.85,0.85-3.34c-0.99-3.18-1.97-6.42-2.34-9.71c-1.22-10.96,4-18.93,12.39-25.24c8.75-6.58,18.74-10.73,28.94-14.44
	c4.11-1.49,8.23-2.95,12.5-4.48C81.61,185.73,80.64,181.39,79.57,176.64z M515.74,417.25c4.62-1.61,8.93-3.04,13.2-4.61
	c11.93-4.37,23.63-9.2,33.83-17c10.09-7.71,16.79-17.46,17.8-30.48c0.73-9.49-1.82-18.22-6.14-26.77c-3.16,2.68-6.02,5.26-9.06,7.62
	c-1.48,1.15-1.77,2.08-1.1,3.94c5.35,14.87,2.16,26.03-10.82,35.08c-6.08,4.24-12.89,7.55-19.65,10.66
	c-6.21,2.86-12.82,4.85-19.23,7.3c-0.65,0.25-1.6,1.16-1.52,1.6C513.81,408.72,514.77,412.81,515.74,417.25z M418.48,78.73
	c-4.46-10.94-8.35-21.61-13.15-31.84c-2.88-6.15-6.66-12.06-10.96-17.33c-14.61-17.94-35.18-19.48-54.54-9.74
	c-0.2,0.1-0.31,0.39-0.52,0.67c2.37,2.74,4.87,5.34,7.03,8.21c1.44,1.91,2.62,2.31,4.99,1.44c13.43-4.97,24.12-1.93,33.16,9.19
	c1.33,1.63,2.57,3.36,3.7,5.14c6.77,10.64,10.91,22.43,15,34.24c0.36,1.05,0.79,2.07,1.22,3.18
	C408.96,80.88,413.23,79.92,418.48,78.73z M190.94,512c-4.63,1.05-8.96,2.03-13.55,3.07c1.29,3.78,2.39,7.19,3.61,10.57
	c4.19,11.6,8.71,23.06,15.71,33.34c14.15,20.8,35.02,26.48,57.64,15.7c0.6-0.29,1.15-0.68,1.82-1.08c-2.61-3.03-5.22-5.77-7.49-8.78
	c-1.32-1.76-2.42-1.87-4.39-1.14c-13.84,5.12-24.86,1.95-33.95-9.7c-6.42-8.22-10.44-17.7-14.1-27.35
	C194.44,521.88,192.77,517.07,190.94,512z M58.68,366.28c-0.37,0.39-0.61,0.55-0.71,0.77c-4.63,10.63-9.62,21.13-13.75,31.95
	c-3.66,9.6-5.27,19.68-3.84,30.06c2.19,15.87,16.97,31.57,32.31,34.01c0.29-3.94,0.5-7.87,0.92-11.78c0.18-1.66-0.34-2.41-1.79-3.26
	c-3.55-2.06-7.28-4.06-10.27-6.8c-7.54-6.92-8.61-15.99-7.21-25.54c1.67-11.37,6.23-21.76,11.03-32.07
	c1.54-3.32,3.15-6.61,4.79-10.04C66.17,371.04,62.42,368.66,58.68,366.28z M522.65,130.84c-0.29,3.85-0.49,7.7-0.92,11.52
	c-0.21,1.84,0.26,2.77,2.04,3.6c14.18,6.66,19.64,17.1,17.19,32.52c-1.78,11.16-6.18,21.41-10.9,31.56
	c-1.58,3.4-3.21,6.77-4.89,10.3c3.99,2.53,7.74,4.91,11.56,7.34c0.36-0.49,0.62-0.73,0.75-1.04c4.28-9.64,8.89-19.15,12.71-28.96
	c4.08-10.49,6.33-21.4,4.75-32.81C552.75,148.97,538.09,133.39,522.65,130.84z M228.3,58.04c-0.29-0.37-0.37-0.57-0.51-0.64
	c-11.42-5.92-23.06-11.33-35.42-15c-9.8-2.91-19.76-4.45-29.94-2.12c-14.71,3.37-28.77,17.77-30.88,31.73
	c3.5,0.24,7.02,0.25,10.46,0.8c2.73,0.44,3.97-0.36,5.14-2.89c4.79-10.33,12.63-16.59,24.41-16.71c3.75-0.04,7.58,0.38,11.25,1.16
	c12.42,2.61,23.76,8.13,35.09,13.6c1,0.48,2,0.95,3.12,1.48C223.54,65.5,225.9,61.81,228.3,58.04z M169.28,139.06
	c-5.81,0.56-11.22,1.06-16.62,1.65c-0.6,0.07-1.29,0.58-1.68,1.09c-6.63,8.52-15.54,13.95-25.17,18.23
	c-6.9,3.07-14.05,5.58-21.05,8.41c-0.76,0.31-1.96,1.21-1.88,1.65c0.77,4.18,1.76,8.33,2.74,12.71c11.96-4,23.27-8.28,34-14.04
	c11.83-6.35,21.39-15.02,28.07-26.76C168.19,141.11,168.66,140.2,169.28,139.06z M426.02,454.86c5.85-0.56,11.19-1.03,16.5-1.64
	c0.73-0.08,1.41-0.87,2.03-1.42c3.98-3.56,7.5-7.88,11.99-10.57c7.51-4.5,15.58-8.1,23.54-11.8c4.03-1.87,8.34-3.14,12.67-4.74
	c-1.04-4.56-2.03-8.9-3.11-13.63c-3.66,1.31-7.13,2.49-10.55,3.77c-12.56,4.71-24.85,9.93-35.52,18.32
	C436.18,438.95,430.7,446.27,426.02,454.86z M139.67,425.29c0.43,3.84,1.1,7.15,1.1,10.46c0,4.59,1.06,8.42,5.26,10.89
	c0.44,0.26,0.75,0.74,1.11,1.12c8.5,8.93,13.51,19.87,17.93,31.14c1.69,4.3,3.22,8.67,4.85,13.11c4.61-1.04,8.93-2.02,13.14-2.97
	c0.04-0.58,0.1-0.77,0.05-0.92c-4.84-14.66-10.28-29.05-19.11-41.88C157.85,437.28,149.7,430.62,139.67,425.29z M412.02,104.92
	c0.21,0.9,0.26,1.42,0.46,1.89c4.37,10.55,8.34,21.3,13.25,31.59c5.86,12.27,14.99,21.83,26.91,28.58c0.87,0.49,1.76,0.94,2.91,1.56
	c-0.56-5.8-1.02-11.13-1.64-16.45c-0.09-0.74-0.77-1.56-1.4-2.06c-5.11-4.04-9.08-9.03-12.47-14.55
	c-5.85-9.51-9.72-19.89-13.44-30.34c-0.37-1.04-0.79-2.07-1.23-3.22C420.85,102.93,416.58,103.89,412.02,104.92z M525.7,249.26
	c-3.72-2.37-7.47-4.77-11.4-7.27c-0.5,0.86-0.95,1.5-1.26,2.2c-3.25,7.31-6.73,14.53-9.66,21.97c-4.31,10.95-7.43,22.26-6.5,34.19
	c0.45,5.78,1.72,11.49,2.62,17.24c0.29-0.02,0.57-0.03,0.86-0.05c3.43-4.21,6.88-8.41,10.25-12.66c0.37-0.47,0.48-1.33,0.4-1.97
	c-1.4-10.91,1.29-21.18,5.16-31.17C519.06,264.28,522.4,257,525.7,249.26z M95.22,276.01c-3.43,4.24-6.6,7.99-9.54,11.91
	c-0.8,1.06-1.17,2.62-1.26,3.99c-0.32,4.71,0.03,9.52-0.72,14.15c-1.98,12.18-7.14,23.3-12.38,34.36c-0.63,1.32-1.24,2.65-1.91,4.09
	c3.99,2.54,7.74,4.92,11.48,7.3c0.37-0.38,0.6-0.54,0.71-0.76c6.92-14.06,13.46-28.26,16.15-43.88
	C99.54,296.74,98.4,286.54,95.22,276.01z M318.26,95.07c-0.01-0.28-0.01-0.56-0.02-0.83c-4.21-3.42-8.39-6.88-12.67-10.21
	c-0.58-0.45-1.64-0.36-2.48-0.37c-3.68-0.04-7.4,0.31-11.04-0.09c-10.97-1.21-21.08-5.36-31.06-9.79c-3.59-1.6-7.14-3.3-10.89-5.05
	c-2.52,3.95-4.94,7.74-7.48,11.72c11.81,5.88,23.38,11.19,35.71,14.61c7.68,2.13,15.5,3.45,23.46,2.65
	C307.32,97.14,312.78,95.96,318.26,95.07z M276.75,499.41c4.11,3.33,7.92,6.28,11.56,9.42c1.38,1.19,2.71,1.49,4.5,1.47
	c4.47-0.05,9.01-0.17,13.39,0.52c12.84,2.04,24.49,7.53,36.12,13.04c0.92,0.44,1.86,0.84,2.92,1.32c2.53-3.96,4.93-7.71,7.39-11.57
	c-0.76-0.46-1.24-0.83-1.79-1.07c-8.8-3.8-17.5-7.86-26.44-11.29c-9.25-3.54-18.9-5.57-28.92-5.18
	C289.24,496.31,283.16,497.43,276.75,499.41z M381,483.05c5.71,1,10.94,1.95,16.2,2.8c0.5,0.08,1.19-0.31,1.63-0.68
	c7.07-5.85,15.45-8.76,24.3-10.17c8.84-1.41,17.79-2.12,26.68-3.22c0.88-0.11,2.37-0.72,2.42-1.21c0.39-4.24,0.52-8.51,0.73-12.8
	c-0.78-0.09-1.13-0.19-1.46-0.16c-9.52,1.04-19.09,1.78-28.55,3.21c-15.34,2.32-29.07,8.16-39.82,19.85
	C382.5,481.35,381.89,482.05,381,483.05z M483.76,213.66c0.98-5.6,1.89-10.61,2.7-15.64c0.11-0.68-0.13-1.62-0.56-2.14
	c-5.87-7.18-8.82-15.64-10.23-24.59c-1.38-8.76-2.09-17.63-3.17-26.45c-0.11-0.88-0.75-2.41-1.2-2.43
	c-4.25-0.19-8.52-0.11-13.16-0.11c0.56,6.08,1.02,12.21,1.72,18.32c1.27,11.14,3.25,22.13,7.97,32.43
	C471.47,201,476.97,207.52,483.76,213.66z M142.93,136.14c0.15,0.02,0.5,0.14,0.82,0.1c10.74-1.25,21.54-2.1,32.19-3.87
	c14.36-2.38,26.84-8.76,36.77-19.67c0.49-0.54,0.9-1.14,1.48-1.88c-5.45-0.95-10.54-1.88-15.65-2.68c-0.66-0.1-1.57,0.24-2.11,0.69
	c-6.97,5.68-15.16,8.61-23.83,10.01c-9.01,1.45-18.14,2.21-27.22,3.23c-1.28,0.14-2.49,0.06-2.46,1.9
	C142.96,127.92,142.93,131.88,142.93,136.14z M530.19,310.86c-2.98-3.26-6.01-6.58-9.18-10.05c-8.42,9.44-16.31,18.76-22.73,29.22
	c-4.83,7.87-8.6,16.17-9.63,25.44c-0.5,4.55-0.52,9.15-0.79,14.39c5.01-3.53,9.26-6.48,13.45-9.51c0.48-0.35,0.85-1.14,0.91-1.76
	c1.09-10.24,5.83-18.94,11.77-27.01C519.07,324.65,524.57,318.01,530.19,310.86z M137,451.67c-0.67-12.27-1.83-24.58-4.67-36.71
	c-2.97-12.68-8.87-23.66-18.43-32.58c-0.67-0.63-1.37-1.22-2.33-2.07c-0.98,5.63-1.92,10.79-2.74,15.97
	c-0.09,0.58,0.28,1.37,0.68,1.87c5.7,6.95,8.63,15.16,10.03,23.82c1.46,9.01,2.16,18.15,3.31,27.22c0.11,0.88,0.95,2.34,1.51,2.37
	C128.45,451.76,132.56,451.67,137,451.67z M107.16,224.25c-4.35,3.08-8.28,5.72-12.02,8.6c-1.03,0.8-1.74,2.24-2.19,3.53
	c-1.81,5.2-2.7,10.89-5.36,15.58c-4.18,7.38-9.42,14.17-14.41,21.06c-2.46,3.39-5.38,6.44-8.23,9.8c3.17,3.49,6.2,6.82,9.42,10.37
	c3.47-4.09,6.71-7.79,9.83-11.59c7.39-8.99,14.2-18.37,18.76-29.19C106.68,243.57,107.69,234.33,107.16,224.25z M293.71,520.43
	c-0.49-0.55-0.73-0.92-1.06-1.18c-8.77-6.88-17.36-14.02-26.4-20.54c-7.02-5.06-14.93-8.57-23.53-10.23
	c-5.7-1.1-11.44-1.46-17.66-0.96c3.31,4.71,6.35,9.08,9.47,13.4c0.29,0.4,1.07,0.57,1.65,0.63c8.93,0.88,16.8,4.59,23.92,9.72
	c7.47,5.39,14.53,11.35,21.82,17c0.61,0.47,1.96,0.91,2.33,0.6C287.46,526.19,290.52,523.32,293.71,520.43z M369.81,106.94
	c0.08-0.3,0.16-0.6,0.24-0.91c-2.62-3.71-5.33-7.35-7.83-11.14c-1.1-1.68-2.42-2.39-4.36-2.84c-4.25-0.99-8.57-2.01-12.56-3.74
	c-8.94-3.89-16.56-9.91-24.04-16.05c-3.17-2.6-6.26-5.29-9.49-8.03c-3.49,3.18-6.78,6.18-10.15,9.25c0.57,0.62,0.87,1.05,1.27,1.37
	c6.52,5.34,12.88,10.91,19.64,15.95c9.14,6.82,18.92,12.65,30.38,14.61C358.47,106.36,364.17,106.46,369.81,106.94z M416.42,131.72
	c-2.17-5.54-4.1-10.62-6.18-15.63c-0.28-0.67-1.27-1.07-1.97-1.54c-3.93-2.63-8.39-4.72-11.7-7.97
	c-5.36-5.28-10.14-11.19-14.85-17.08c-3.33-4.17-6.13-8.76-9.28-13.32c-4.13,2.12-8.15,4.18-12.36,6.33
	c8.83,13.46,17.39,26.56,29.59,36.75C397.32,125.65,406.23,129.38,416.42,131.72z M405.13,492.95c-0.75-0.26-1.22-0.5-1.71-0.58
	c-9.28-1.55-18.51-3.41-27.84-4.55c-14.96-1.82-29.31,0.26-42.42,8.31c-0.79,0.48-1.54,1.01-2.56,1.68
	c5.29,2.31,10.18,4.48,15.1,6.57c0.58,0.25,1.44,0.27,2.01,0.04c10.17-4.15,20.7-3.58,31.22-2.19c6.7,0.89,13.33,2.3,20.02,3.37
	c0.71,0.11,2.05-0.33,2.23-0.83C402.6,500.91,403.81,496.98,405.13,492.95z M132.44,178.17c-5.49,2.16-10.63,4.12-15.7,6.23
	c-0.67,0.28-1.04,1.3-1.51,2c-2.63,3.93-4.86,8.2-7.94,11.73c-7.22,8.29-16.26,14.47-25.33,20.55c-1.66,1.12-3.33,2.22-5.13,3.42
	c2.18,4.26,4.24,8.27,6.46,12.59c6.18-4.3,12.04-8.18,17.7-12.34c8.32-6.12,16.07-12.86,22.01-21.44
	C127.7,194.1,130.53,186.52,132.44,178.17z M88.81,400.25c4.33,1.4,8.55,2.77,12.83,4.16c0.26-0.62,0.46-0.92,0.52-1.25
	c1.61-9.81,3.56-19.57,4.73-29.43c1.74-14.73-0.68-28.78-8.59-41.61c-0.43-0.7-0.92-1.36-1.5-2.21c-2.27,5.21-4.41,10.03-6.45,14.89
	c-0.28,0.66-0.36,1.61-0.1,2.26c4.08,10.1,3.56,20.54,2.19,30.99C91.46,385.36,90.07,392.62,88.81,400.25z M235.26,511.41
	c-7.44-11.39-14.77-22.32-24.09-31.78c-8.44-8.57-18.51-14.14-30.16-16.95c-0.61-0.15-1.24-0.17-2.03-0.28
	c2.04,5.22,3.91,10.14,5.92,15.01c0.32,0.77,1.23,1.37,1.98,1.86c3.39,2.18,7.34,3.77,10.12,6.54c5.88,5.88,11.33,12.22,16.61,18.65
	c3.38,4.12,6.14,8.74,9.26,13.26C226.96,515.65,230.93,513.62,235.26,511.41z M462.87,415.79c4.04-1.63,7.53-3.29,11.19-4.43
	c3.57-1.11,6.19-2.81,7.45-6.56c0.6-1.78,1.91-3.36,3.05-4.92c4.68-6.39,10.62-11.51,16.91-16.2c5.49-4.09,11.16-7.95,16.94-12.05
	c-2.07-4.03-4.13-8.06-6.3-12.3c-13.57,8.94-26.86,17.58-37.08,30.02C468.81,396.94,465.19,405.73,462.87,415.79z M190.2,100.97
	c0.62,0.25,0.93,0.44,1.25,0.49c9.35,1.57,18.67,3.48,28.08,4.6c10.9,1.3,21.82,0.96,32.19-3.29c4.41-1.81,8.62-4.09,13.54-6.46
	c-5.28-2.29-9.72-4.12-14.07-6.15c-1.72-0.8-3.17-0.91-4.99-0.24c-2.54,0.93-5.2,1.65-7.88,2.07c-9.78,1.54-19.46,0.27-29.11-1.31
	c-4.91-0.8-9.78-1.78-14.79-2.7C192.99,92.4,191.63,96.56,190.2,100.97z M493.61,189.49c-0.25,0.77-0.45,1.17-0.52,1.59
	c-1.54,9.19-3.39,18.35-4.54,27.59c-1.89,15.16,0.21,29.68,8.36,42.95c0.46,0.76,0.98,1.48,1.61,2.43c2.08-4.8,3.88-9.19,5.91-13.48
	c0.86-1.83,0.86-3.37,0.17-5.25c-0.92-2.54-1.62-5.22-2.01-7.9c-1.58-10.78,0.03-21.41,1.87-32c0.67-3.86,1.44-7.71,2.19-11.67
	C502.19,192.28,498.04,190.93,493.61,189.49z M97.39,454.75c-0.15,3.18-0.42,6.14-0.41,9.09c0.01,5.51-0.69,4.79,4.67,5.17
	c15.6,1.1,31.21,1.99,46.82,2.96c2.66,0.17,5.31,0.36,8.71,0.59c-2.35-4.41-4.44-8.15-6.33-11.98c-1.09-2.21-2.72-2.79-5.05-2.88
	c-10.09-0.42-20.18-0.96-30.26-1.56C109.66,455.79,103.8,455.25,97.39,454.75z M122.07,156.33c3.56-1.8,6.59-3.55,9.79-4.89
	c3.93-1.64,5.12-4.39,5.31-8.57c0.66-14.74,1.74-29.46,2.64-44.19c0.04-0.58-0.05-1.16-0.09-1.83c-0.84-0.12-1.52-0.25-2.21-0.29
	c-2.02-0.12-4.04-0.3-6.05-0.27c-6.35,0.11-5.43-1.11-5.9,5.29c-1.11,15.16-1.93,30.34-2.88,45.51
	C122.51,149.96,122.3,152.83,122.07,156.33z M473.24,437.62c-3.44,1.72-6.41,3.37-9.51,4.71c-3.91,1.7-5.3,4.42-5.5,8.75
	c-0.67,14.92-1.82,29.82-2.78,44.73c-0.03,0.41,0.09,0.83,0.14,1.28c0.82,0.11,1.5,0.25,2.2,0.28c2.19,0.12,4.39,0.3,6.58,0.27
	c5.72-0.09,4.93,0.97,5.38-5.02c1.08-14.55,1.88-29.12,2.79-43.68C472.76,445.37,472.98,441.79,473.24,437.62z M497.93,139.25
	c0.16-3.04,0.43-5.75,0.42-8.46c-0.04-6.43,0.9-5.48-5.3-5.94c-14.21-1.05-28.45-1.85-42.68-2.74c-3.82-0.24-7.64-0.44-12.18-0.7
	c2.3,4.32,4.35,8.07,6.3,11.88c1.04,2.02,2.55,2.76,4.82,2.86c11.6,0.53,23.2,1.18,34.79,1.87
	C488.58,138.31,493.03,138.81,497.93,139.25z M74.18,321.75c1.44-4.86,2.69-9.22,4.03-13.56c0.52-1.69,0.17-2.92-1.04-4.28
	C66.6,292,56.12,280.01,45.6,268.06c-0.32-0.37-0.77-0.62-1.36-1.1c-3.31,3.15-6.53,6.21-10.1,9.62
	C47.54,291.7,60.64,306.48,74.18,321.75z M322.46,520.45c-4.77-1.41-9.05-2.63-13.29-3.96c-1.87-0.58-3.22-0.23-4.74,1.12
	c-11.84,10.52-23.77,20.94-35.67,31.4c-0.32,0.28-0.59,0.61-1.18,1.23c3.17,3.36,6.26,6.64,9.68,10.26
	C292.4,547.09,307.18,533.99,322.46,520.45z M318.08,33.39c-15.17,13.45-29.95,26.55-45.22,40.09c4.9,1.45,9.27,2.7,13.62,4.04
	c1.7,0.52,2.93,0.11,4.27-1.09c11.23-10.01,22.53-19.95,33.81-29.9c0.97-0.85,1.99-1.65,3.29-2.74
	C324.62,40.35,321.58,37.12,318.08,33.39z M551.01,326.81c1.77-1.56,3.63-3.14,5.43-4.8c4.68-4.34,4.77-4.44,0.53-9.29
	c-10.72-12.25-21.54-24.41-32.32-36.61c-1.03-1.16-2.04-2.33-3.53-4.03c-1.52,5.31-2.93,10-4.15,14.74
	c-0.19,0.75,0.22,1.95,0.77,2.57C528.7,301.77,539.71,314.11,551.01,326.81z M502.51,448.85c3.63-0.82,7.1-1.69,10.62-2.36
	c2.31-0.44,2.92-1.46,2.43-3.8c-3.4-16.18-6.68-32.38-10-48.57c-0.4-1.94-0.84-3.87-1.39-6.4c-3.65,3.22-6.81,6.12-10.1,8.87
	c-1.58,1.32-1.81,2.73-1.38,4.65c2.23,9.86,4.42,19.74,6.48,29.64C500.4,436.7,501.36,442.59,502.51,448.85z M91.19,206.16
	c3.53-3.11,6.63-5.94,9.86-8.63c1.7-1.42,2.05-2.91,1.55-5.07c-2.25-9.77-4.39-19.56-6.44-29.37c-1.22-5.84-2.19-11.72-3.35-18.03
	c-3.69,0.83-7.25,1.69-10.84,2.42c-2.05,0.42-2.68,1.35-2.24,3.49c2.23,10.76,4.27,21.56,6.48,32.33
	C87.73,190.69,89.41,198.04,91.19,206.16z M388.44,90.4c3.07,3.53,5.83,6.56,8.43,9.73c1.52,1.85,3.14,2.24,5.49,1.71
	c12.44-2.77,24.92-5.38,37.39-7.98c3.14-0.66,6.32-1.08,9.82-1.67c-0.87-3.82-1.75-7.3-2.43-10.82c-0.43-2.22-1.43-2.79-3.65-2.32
	c-14.53,3.07-29.09,6.03-43.64,9.03C396.28,88.81,392.69,89.53,388.44,90.4z M379.49,507.19c-4.77-0.31-8.96-0.52-13.12-0.89
	c-2.2-0.2-3.46,0.64-4.67,2.5c-8.54,13.1-17.21,26.11-25.83,39.15c-0.22,0.34-0.35,0.74-0.62,1.34c3.2,2.04,6.34,3.96,9.4,6.01
	c1.63,1.09,2.63,1,3.79-0.79c6.56-10.09,13.26-20.08,19.88-30.13C371.93,518.89,375.48,513.36,379.49,507.19z M215.76,86.7
	c4.7,0.32,8.79,0.53,12.86,0.91c2.37,0.22,3.81-0.6,5.12-2.66c6.73-10.62,13.62-21.15,20.5-31.68c1.86-2.84,3.92-5.55,6.06-8.57
	c-4.04-2.51-7.81-4.86-12.14-7.56C237.35,53.68,226.75,69.89,215.76,86.7z M206.93,503.54c-3.18-3.62-6-6.72-8.69-9.95
	c-1.42-1.7-2.91-2.06-5.07-1.56c-9.68,2.23-19.39,4.35-29.11,6.38c-5.92,1.23-11.89,2.23-18.3,3.41c1.03,4.5,2.04,8.89,3.18,13.86
	C168.27,511.63,187.17,507.67,206.93,503.54z M37.82,346.44c16.62,10.86,32.84,21.45,49.64,32.43c0.31-5.06,0.53-9.42,0.86-13.77
	c0.14-1.8-0.55-2.87-2.08-3.83c-7.97-5-15.91-10.05-23.78-15.21c-5.65-3.7-11.16-7.6-17.06-11.64
	C42.98,338.25,40.62,342,37.82,346.44z M507.86,215.53c-0.29,4.38-0.48,8.5-0.87,12.59c-0.22,2.33,0.69,3.63,2.63,4.88
	c12.05,7.76,24.01,15.66,35.99,23.54c1.37,0.9,2.67,1.91,4.25,3.05c2.08-3.28,3.93-6.36,5.94-9.34c1.21-1.8,1.13-2.91-0.85-4.2
	c-15.31-10-30.56-20.11-45.83-30.18C508.93,215.73,508.65,215.73,507.86,215.53z M64.73,397.49c-1.41,4.21-2.84,8.48-4.42,13.17
	c18.65,6.27,36.84,12.38,55.68,18.72c-1.07-4.68-2.11-8.91-2.99-13.17c-0.44-2.13-1.58-3.21-3.67-3.89
	C94.64,407.5,79.98,402.58,64.73,397.49z M75.58,262.15c2.59-4.16,4.87-7.98,7.31-11.7c1.1-1.68,1.07-3.1,0.15-4.87
	c-4.35-8.45-8.63-16.93-12.85-25.45c-2.73-5.5-5.32-11.07-8.15-16.96c-4.13,2.09-8.15,4.13-12.6,6.39
	C58.18,227.15,66.73,244.36,75.58,262.15z M165.2,115.33c4.94-1.15,9.35-2.22,13.78-3.19c1.76-0.38,2.59-1.39,3.13-3.07
	c2.91-9.03,5.87-18.05,8.91-27.04c1.99-5.89,4.12-11.73,6.32-17.94c-4.46-1.48-8.73-2.91-13.38-4.45
	C177.69,78.23,171.59,96.37,165.2,115.33z M411.36,534.3c6.29-18.71,12.4-36.89,18.73-55.72c-4.96,1.17-9.37,2.25-13.8,3.23
	c-1.65,0.36-2.49,1.22-3.02,2.84c-3.29,10.11-6.67,20.19-10.06,30.27c-1.64,4.89-3.37,9.74-5.17,14.92
	C402.42,531.31,406.63,532.72,411.36,534.3z M479.29,164.52c1.16,4.92,2.23,9.24,3.18,13.6c0.4,1.84,1.38,2.76,3.18,3.35
	c11.62,3.77,23.2,7.64,34.79,11.52c3.29,1.1,6.54,2.36,10.1,3.66c1.51-4.49,2.92-8.69,4.49-13.37
	C516.43,177.01,498.23,170.89,479.29,164.52z M519.75,331.77c-2.53,4.05-4.75,7.73-7.11,11.31c-1.26,1.9-1.22,3.51-0.18,5.58
	c6.86,13.67,13.57,27.42,20.33,41.14c0.12,0.23,0.26,0.46,0.49,0.87c4.2-2.1,8.18-4.08,12.65-6.31
	C537.21,366.84,528.65,349.65,519.75,331.77z M385.08,48.73c-17.58,8.73-34.81,17.29-52.63,26.14c4.22,2.62,7.98,4.87,11.64,7.26
	c1.77,1.15,3.27,1.03,5.11,0.1c11.76-5.95,23.56-11.81,35.36-17.67c2.17-1.08,4.38-2.06,6.85-3.22
	C389.28,57.1,387.28,53.13,385.08,48.73z M210.23,545.17c17.59-8.73,34.85-17.3,52.65-26.13c-4.18-2.6-8-4.9-11.75-7.33
	c-1.67-1.08-3.1-1.02-4.87-0.11c-11.68,5.93-23.41,11.75-35.14,17.59c-2.26,1.12-4.57,2.14-7.16,3.35
	C206.05,536.76,208.02,540.74,210.23,545.17z M297.67,549.49c-5.48,4.69-10.79,9.24-16.11,13.79c8.64,8.14,23.34,8.15,32.25,0.03
	C308.48,558.75,303.17,554.2,297.67,549.49z M31.26,280.75c-8.2,10.14-8.05,25.04,0.17,32.22c4.55-5.31,9.09-10.62,13.7-16.01
	C40.47,291.52,35.92,286.21,31.26,280.75z M564.03,280.78c-4.68,5.48-9.22,10.8-13.82,16.18c4.66,5.45,9.2,10.76,13.76,16.09
	C572.88,302.64,571.59,289.93,564.03,280.78z M281.56,30.62c5.39,4.61,10.75,9.2,16.15,13.82c2.85-2.48,5.49-4.8,8.16-7.08
	c2.64-2.26,5.31-4.5,8-6.77C304.13,22.48,290.42,22.5,281.56,30.62z M497.38,120.01c-0.41-12.12-12.24-23.75-22.76-22.52
	c0.55,6.94,1.1,13.89,1.65,20.89C483.4,118.93,490.28,119.47,497.38,120.01z M120.7,97.21c-12.36,0.8-23.44,12.09-22.57,22.76
	c6.56-0.47,13.12-0.93,19.68-1.47c0.5-0.04,1.31-0.72,1.35-1.16C119.73,110.7,120.19,104.05,120.7,97.21z M474.55,496.68
	c11.84-0.33,22.72-11.21,22.77-22.49c-0.15-0.09-0.31-0.26-0.45-0.25c-6.49,0.48-12.99,0.94-19.47,1.54
	c-0.49,0.05-1.2,1.13-1.27,1.78c-0.37,3.59-0.56,7.19-0.84,10.79C475.07,490.93,474.8,493.79,474.55,496.68z M120.7,496.7
	c-0.51-6.83-0.96-13.48-1.59-20.11c-0.05-0.48-1.35-1.14-2.11-1.21c-5.69-0.54-11.4-0.96-17.1-1.4c-0.65-0.05-1.3-0.01-1.97-0.01
	C98.58,486,108.51,495.94,120.7,496.7z M351.9,558.36c10.01,5.94,26.02,0.91,29.88-9.27c-5.83-2.81-11.67-5.63-17.65-8.52
	C360,546.58,355.96,552.46,351.9,558.36z M36.18,242.68c5.7-3.82,11.26-7.52,16.76-11.29c0.43-0.29,0.86-1.28,0.68-1.66
	c-2.66-5.71-5.42-11.37-8.16-17.06C34.81,219.3,30.44,230.25,36.18,242.68z M559.19,351.14c-5.74,3.9-11.33,7.66-16.84,11.52
	c-0.42,0.29-0.67,1.45-0.44,1.94c2.6,5.55,5.31,11.05,7.98,16.57C560.4,375.98,564.67,362.44,559.19,351.14z M559.15,242.65
	c5.61-10.98,0.95-25.63-9.3-29.83c-2.65,5.45-5.32,10.89-7.9,16.38c-0.25,0.52-0.11,1.71,0.28,1.97
	C547.77,235.02,553.39,238.77,559.15,242.65z M381.86,44.76c-6.48-11.03-18.33-14.91-29.86-9.16c4.05,5.91,8.08,11.8,12.11,17.71
	C370.19,50.38,376.02,47.57,381.86,44.76z M45.39,381.25c2.76-5.67,5.48-11.17,8.05-16.75c0.23-0.49-0.4-1.75-0.97-2.16
	c-3.21-2.3-6.55-4.44-9.82-6.67c-2.15-1.46-4.26-2.97-6.41-4.48C30.58,362.05,34.47,374.8,45.39,381.25z M213.49,549.14
	c6.69,11.45,18.71,14.7,29.86,9.19c-4.05-5.91-8.08-11.8-12.15-17.73C225.15,543.52,219.33,546.33,213.49,549.14z M213.5,44.78
	c5.51,2.67,11.01,5.39,16.59,7.93c0.52,0.23,1.86-0.48,2.31-1.12c3.16-4.43,6.18-8.96,9.24-13.45c0.61-0.9,1.21-1.8,1.85-2.74
	C231.9,30.02,218,34.44,213.5,44.78z M74.38,150.5c-11.62,3.57-18.7,17.15-14.5,27.61c5.79-2,11.59-3.98,17.36-6.07
	c0.47-0.17,1.01-1.21,0.92-1.74C76.97,163.75,75.68,157.22,74.38,150.5z M178.9,59.04c-11.94-3.45-25.41,3.8-27.55,14.7
	c6.94,1.3,13.89,2.6,20.99,3.93C174.53,71.44,176.68,65.34,178.9,59.04z M444.17,73.71c-4.02-11.94-17.92-19.11-27.65-14.41
	c2.14,6.09,4.29,12.18,6.47,18.39C430.08,76.35,437.03,75.05,444.17,73.71z M444.09,520.2c-7.12-1.33-14.06-2.63-21.11-3.95
	c-2.22,6.33-4.38,12.48-6.54,18.64C428.51,538.19,440.73,531.68,444.09,520.2z M78.27,422.23c-6.25-2.19-12.35-4.33-18.45-6.47
	c-3.88,11.15,4.36,26.42,14.61,27.39c1.28-6.63,2.56-13.25,3.83-19.88C78.31,423.02,78.27,422.76,78.27,422.23z M535.62,415.73
	c-5.94,2.06-11.74,4.02-17.48,6.15c-0.51,0.19-0.97,1.52-0.85,2.23c0.64,3.9,1.47,7.76,2.21,11.64c0.48,2.54,0.91,5.09,1.36,7.66
	C532.37,440.06,538.79,428.03,535.62,415.73z M178.92,534.88c-2.24-6.33-4.42-12.49-6.6-18.66c-7.21,1.36-14.13,2.67-21.08,3.99
	C154.63,531.7,166.86,538.18,178.92,534.88z M535.6,178.16c3.41-11.91-3.79-25.31-14.68-27.5c-1.28,6.61-2.59,13.22-3.78,19.85
	c-0.09,0.48,0.61,1.43,1.14,1.63C523.97,174.18,529.69,176.12,535.6,178.16z M118.02,451.33c-0.48-5.32-0.89-10.04-1.37-14.75
	c-0.05-0.53-0.43-1.3-0.85-1.47c-4.63-1.81-9.29-3.52-14.36-5.42c-1.21,6.86-2.33,13.2-3.52,19.92
	C104.8,450.2,111.15,450.74,118.02,451.33z M493.87,429.68c-4.99,1.86-9.43,3.48-13.84,5.2c-0.55,0.21-1.24,0.89-1.3,1.42
	c-0.53,4.86-0.94,9.73-1.42,15.06c6.9-0.61,13.32-1.17,20.11-1.77C496.21,442.8,495.09,436.51,493.87,429.68z M493.89,164.22
	c1.21-6.9,2.32-13.24,3.5-19.93c-6.93-0.59-13.27-1.13-20.08-1.71c0.48,5.34,0.9,10.22,1.41,15.08c0.05,0.47,0.62,1.1,1.09,1.29
	C484.31,160.69,488.83,162.35,493.89,164.22z M145.01,496.72c6.83-1.23,13.18-2.36,19.92-3.57c-1.87-5.01-3.53-9.54-5.27-14.03
	c-0.18-0.48-0.82-1.05-1.29-1.1c-4.87-0.52-9.74-0.93-15.08-1.42C143.87,483.44,144.42,489.8,145.01,496.72z M101.45,164.24
	c4.98-1.86,9.42-3.48,13.83-5.2c0.55-0.21,1.26-0.87,1.31-1.39c0.53-4.86,0.94-9.74,1.43-15.09c-6.9,0.61-13.31,1.17-20.11,1.77
	C99.12,151.12,100.24,157.41,101.45,164.24z M252.77,64.36c4.84,2.22,9.13,4.21,13.46,6.12c0.55,0.24,1.51,0.29,1.92-0.04
	c3.81-3.07,7.53-6.23,11.64-9.67c-5.26-4.43-10.18-8.58-15.43-13C260.43,53.39,256.74,58.68,252.77,64.36z M430.5,100.72
	c1.01,2.9,2.17,5.23,2.62,7.69c1.15,6.39,4.89,8.82,11.15,8.35c2.47-0.18,4.98,0.25,7.79,0.42c-0.61-6.85-1.17-13.2-1.78-19.97
	C443.54,98.41,437.26,99.52,430.5,100.72z M65.06,252.07c-5.66,3.95-10.95,7.65-16.59,11.58c4.44,5.26,8.58,10.19,13,15.42
	c3.44-4.1,6.61-7.83,9.68-11.63c0.33-0.4,0.29-1.38,0.05-1.92C69.29,261.19,67.28,256.91,65.06,252.07z M546.87,263.63
	c-5.67-3.94-11.01-7.65-16.61-11.54c-2.2,4.8-4.2,9.09-6.11,13.42c-0.24,0.55-0.29,1.52,0.03,1.92c3.07,3.81,6.24,7.54,9.68,11.64
	C538.28,273.82,542.43,268.89,546.87,263.63z M342.56,64.36c-3.99-5.71-7.68-10.99-11.6-16.6c-5.26,4.44-10.18,8.6-15.4,13.01
	c4.06,3.41,7.71,6.53,11.44,9.55c0.43,0.35,1.38,0.46,1.9,0.24C333.31,68.63,337.67,66.59,342.56,64.36z M252.78,529.56
	c3.97,5.68,7.7,11.01,11.61,16.6c5.31-4.51,10.22-8.67,15.38-13.04c-4.04-3.39-7.64-6.46-11.31-9.44c-0.45-0.37-1.39-0.6-1.88-0.39
	C262.09,525.25,257.66,527.32,252.78,529.56z M330.99,546.16c3.99-5.75,7.66-11.04,11.53-16.62c-4.83-2.21-9.2-4.23-13.6-6.17
	c-0.47-0.21-1.33-0.22-1.68,0.07c-3.85,3.12-7.63,6.32-11.7,9.72C320.85,537.62,325.73,541.72,330.99,546.16z M546.86,330.28
	c-4.45-5.29-8.6-10.21-13.02-15.45c-3.39,4.06-6.49,7.74-9.52,11.46c-0.33,0.4-0.55,1.23-0.37,1.65c2,4.54,4.09,9.04,6.31,13.88
	C535.89,337.91,541.14,334.26,546.86,330.28z M430.39,493.17c6.82,1.2,13.16,2.32,19.93,3.52c0.58-6.89,1.13-13.29,1.71-20.08
	c-5.28,0.47-9.99,0.84-14.69,1.38c-0.67,0.08-1.54,0.86-1.8,1.53C433.81,483.83,432.24,488.21,430.39,493.17z M145.01,97.21
	c-0.59,6.93-1.14,13.34-1.72,20.11c5.3-0.48,10.02-0.87,14.73-1.37c0.58-0.06,1.4-0.58,1.59-1.08c1.78-4.55,3.45-9.14,5.3-14.12
	C158.15,99.54,151.87,98.43,145.01,97.21z M65.05,341.81c2.22-4.82,4.29-9.25,6.28-13.72c0.2-0.45,0.1-1.3-0.21-1.68
	c-3.08-3.78-6.24-7.51-9.66-11.58c-4.44,5.27-8.58,10.2-12.98,15.44C54.14,334.21,59.43,337.9,65.05,341.81z M520.9,376.31
	c-2.81,1.88-5,3.7-7.48,4.92c-4.04,1.98-4.9,4.78-3.55,8.9c0.88,2.67,1.15,5.53,1.75,8.58c5.88-2.12,11.26-4.06,16.94-6.11
	C525.9,386.95,523.49,381.82,520.9,376.31z M202.06,66.09c-2.13,5.86-4.07,11.19-6.18,17.02c4.79,0.85,9.24,1.66,13.7,2.41
	c0.33,0.06,0.88-0.26,1.09-0.57c2.51-3.63,4.98-7.3,7.64-11.21C212.72,71.11,207.59,68.7,202.06,66.09z M393.32,527.79
	c2.09-5.84,4.01-11.19,6.08-16.96c-4.71-0.86-9.09-1.68-13.48-2.42c-0.4-0.07-1.06,0.29-1.31,0.65c-2.5,3.58-4.94,7.21-7.6,11.13
	C382.55,522.77,387.7,525.17,393.32,527.79z M83.75,195.2c-5.45,1.99-10.54,3.82-15.59,5.76c-0.38,0.15-0.81,1.21-0.64,1.59
	c2.19,4.94,4.49,9.83,6.92,15.08c3.97-2.71,7.59-5.14,11.16-7.64c0.35-0.25,0.69-0.91,0.63-1.31
	C85.47,204.3,84.64,199.94,83.75,195.2z M195.95,510.88c2.09,5.81,4.04,11.19,6.1,16.92c5.56-2.63,10.74-5.08,16.23-7.67
	c-2.66-3.92-5.04-7.48-7.51-10.98c-0.29-0.41-1.07-0.8-1.54-0.72C204.94,509.16,200.66,510,195.95,510.88z M520.86,217.59
	c2.64-5.64,5.07-10.82,7.63-16.28c-5.83-2.09-11.17-3.99-16.91-6.05c-0.88,4.67-1.73,8.95-2.45,13.25
	c-0.08,0.51,0.43,1.35,0.91,1.69C513.47,212.63,516.96,214.95,520.86,217.59z M83.74,398.66c0.89-4.71,1.72-9,2.48-13.3
	c0.07-0.42-0.19-1.12-0.53-1.35c-3.63-2.55-7.3-5.03-11.21-7.7c-2.64,5.65-5.08,10.84-7.63,16.28
	C72.63,394.67,77.9,396.56,83.74,398.66z M399.39,83.04c-2.11-5.83-4.07-11.22-6.14-16.95c-5.58,2.66-10.75,5.12-16.18,7.71
	c2.63,3.9,4.96,7.4,7.36,10.85c0.3,0.43,1.02,0.93,1.46,0.85C390.27,84.77,394.64,83.93,399.39,83.04z"/>
</svg>
