<?xml version="1.0" encoding="utf-8"?>
<!-- Generator: Adobe Illustrator 24.3.0, SVG Export Plug-In . SVG Version: 6.00 Build 0)  -->
<svg version="1.1" id="Layer_1" xmlns="http://www.w3.org/2000/svg" xmlns:xlink="http://www.w3.org/1999/xlink" x="0px" y="0px"
	 viewBox="0 0 430.4 379" style="enable-background:new 0 0 430.4 379;" xml:space="preserve">
<style type="text/css">
	.st0{display:none;}
	.st1{display:inline;fill:#FFFFFF;}
	.st2{fill:#EFEFEF;}
	.st3{fill:#F7B48A;}
	.st4{fill:#BF9D78;}
	.st5{fill:#715B45;}
	.st6{fill:#F7F6E2;}
	.st7{fill:#BABDCC;}
	.st8{fill:#939AAA;}
	.st9{fill:#ACB0C1;}
	.st10{fill:#D1D5E0;}
	.st11{fill:#3A2F67;}
	.st12{fill:#FFFFFF;}
	.st13{fill:#1E0B0E;}
	.st14{fill:#240E10;}
	.st15{fill:#E2A17D;}
	.st16{fill:#F4A68C;}
	.st17{fill:#EEEDF2;}
	.st18{fill:#30285B;}
	.st19{fill:#F27ABA;}
	.st20{fill:#FFD390;}
	.st21{fill:#F4BE20;}
	.st22{fill:#F26F00;}
	.st23{fill:#F2931D;}
	.st24{fill:#90A9D1;}
	.st25{fill:#728EB7;}
</style>
<g id="BACKGROUND" class="st0">
	<rect id="XMLID_37_" x="-34.8" y="-59.9" class="st1" width="500" height="500"/>
</g>
<g id="OBJECTS">
	<g id="XMLID_31_">
		<ellipse id="XMLID_89_" class="st2" cx="285.8" cy="358.5" rx="144.7" ry="21.7"/>
		<ellipse id="XMLID_30_" class="st2" cx="70.9" cy="361" rx="70.9" ry="19.2"/>
	</g>
	<path id="XMLID_431_" class="st3" d="M162.1,140.4c0,0,3.4-10.8,6.3-14c2.5-2.8,2.5,6.2,2.5,6.3s-4.9,10.4-4.9,10.4L162.1,140.4z"
		/>
	<g id="XMLID_372_">
		<path id="XMLID_430_" class="st4" d="M414,53.5c0,0,3.8,0.8,6,6.8s-6.3,268.9-10.8,289.2l-5.8,4.6c0,0-8.3-217.8-4.5-249.4
			C402.7,73.1,414,53.5,414,53.5z"/>
		<path id="XMLID_429_" class="st5" d="M173.6,354.2l-9-296.9c0,0,179.3-14.3,249.4-3.8c0,0-8.3,300.6-10.5,300.6
			C401.2,354.2,251.2,363.2,173.6,354.2z"/>
		<path id="XMLID_428_" class="st4" d="M393.6,78.4c0,0,10.6,105.3-7.5,243.2c0,0-102.3,13.8-213.5,0.9L393.6,78.4z"/>
		<path id="XMLID_425_" class="st6" d="M186.4,78.4h207.2c0,0,2,188.7-16.1,240.3c0,0-156.8,7.7-210.1-2.2
			C167.4,316.5,180.4,281.1,186.4,78.4z"/>
		<path id="XMLID_422_" class="st7" d="M350.7,85.2c-49,6.8-130.7,1-130.7,1c-10.2-18.7-3.2-35.3-3.2-35.3
			c11.3-4.6,24.9-7.7,39.8-7.9c-4.4-12.4-7.1-35.2,3-38.4c14.3-4.5,61.8-10.5,64.1,9c1.2,10.3-1.6,19.7-4.4,26.3
			c23,1.9,35.9,7.1,35.9,7.1C359.5,62,350.7,85.2,350.7,85.2z M270.1,14.7c0,0-1,18.8,4.5,22.4c0,0,15.9,3.1,28.1-0.5
			c0,0,4.9-10.1,4.2-22.9C306.9,13.7,293,8,270.1,14.7z"/>
		<g id="XMLID_418_">
			<path id="XMLID_419_" class="st8" d="M360.8,177.6h-25.2c-0.9,0-1.6-0.7-1.7-1.6l-1.9-25.6c0-0.5,0.1-0.9,0.4-1.2
				c0.3-0.3,0.7-0.6,1.2-0.6l31.1-1.3c0.5,0,1,0.2,1.3,0.6s0.5,0.9,0.4,1.4l-4,26.9C362.4,176.9,361.7,177.6,360.8,177.6z
				 M337.2,174.2h22.2l3.5-23.4l-27.3,1.2L337.2,174.2z"/>
		</g>
		<g id="XMLID_414_">
			<path id="XMLID_415_" class="st8" d="M362.6,229.9h-25.2c-0.9,0-1.6-0.7-1.7-1.6l-1.9-25.6c0-0.5,0.1-0.9,0.4-1.2
				c0.3-0.3,0.7-0.5,1.2-0.6l31.1-1.3c0.5,0,1,0.2,1.3,0.6s0.5,0.9,0.4,1.4l-4,26.9C364.1,229.2,363.4,229.9,362.6,229.9z
				 M338.9,226.5h22.2l3.5-23.4l-27.3,1.2L338.9,226.5z"/>
		</g>
		<g id="XMLID_410_">
			<path id="XMLID_411_" class="st8" d="M355.8,278.4h-25.2c-0.9,0-1.6-0.7-1.7-1.6l-1.9-25.6c0-0.5,0.1-0.9,0.4-1.2
				c0.3-0.3,0.7-0.5,1.2-0.6l31.1-1.3c0.5,0,1,0.2,1.3,0.6s0.5,0.9,0.4,1.4l-4,26.9C357.4,277.7,356.6,278.4,355.8,278.4z
				 M332.1,275h22.2l3.5-23.4l-27.3,1.2L332.1,275z"/>
		</g>
		<polygon id="XMLID_407_" class="st8" points="195.8,153.7 311.5,153.8 311.5,160.9 195.8,158.5 		"/>
		<polygon id="XMLID_404_" class="st8" points="195.8,165.4 311.5,166.9 311.5,171.5 195.8,170.5 		"/>
		<polygon id="XMLID_401_" class="st8" points="195.8,203.8 311.5,203.9 311.5,211 195.8,208.6 		"/>
		<polygon id="XMLID_398_" class="st8" points="195.8,215.5 311.5,217.1 311.5,221.6 195.8,220.6 		"/>
		<polygon id="XMLID_395_" class="st8" points="189.8,254.4 305.5,254.5 305.5,261.6 189.8,259.2 		"/>
		<polygon id="XMLID_392_" class="st8" points="189.8,266 305.5,267.6 305.5,272.1 189.8,271.2 		"/>
		<path id="XMLID_383_" class="st5" d="M372.1,137.1c-6.4,7.8-12.8,15.6-19.1,23.4c-1.9,2.4-2.5,5.2-5.7,3.2
			c-1.8-1.2-3.5-2.9-5.2-4.2c-4-3.3-8-6.6-12-9.9c-1.7-1.4-4.1,1-2.4,2.4c5.2,4.2,10.3,8.4,15.5,12.7c2,1.6,4.5,4.8,7.4,3.6
			c1.7-0.7,3.1-3.2,4.1-4.5c2.1-2.6,4.3-5.2,6.4-7.8c4.5-5.5,9-10.9,13.5-16.4C375.9,137.8,373.5,135.4,372.1,137.1z"/>
		<path id="XMLID_380_" class="st5" d="M372.1,187.6c-6.4,7.8-12.8,15.6-19.1,23.3c-1.9,2.4-2.5,5.2-5.7,3.2
			c-1.8-1.2-3.5-2.9-5.2-4.2c-4-3.3-8-6.6-12-9.9c-1.7-1.4-4.1,1-2.4,2.4c5.2,4.2,10.3,8.4,15.5,12.7c2,1.6,4.5,4.8,7.4,3.6
			c1.7-0.7,3.1-3.2,4.1-4.5c2.1-2.6,4.3-5.2,6.4-7.8c4.5-5.5,9-10.9,13.5-16.4C375.9,188.4,373.5,186,372.1,187.6z"/>
		<path id="XMLID_377_" class="st5" d="M365.4,240.2c-6.4,7.8-12.8,15.6-19.1,23.4c-1.9,2.4-2.5,5.2-5.7,3.2
			c-1.8-1.2-3.5-2.9-5.2-4.2c-4-3.3-8-6.6-12-9.9c-1.7-1.4-4.1,1-2.4,2.4c5.2,4.2,10.3,8.4,15.5,12.7c2,1.6,4.5,4.8,7.4,3.6
			c1.7-0.7,3.1-3.2,4.1-4.5c2.1-2.6,4.3-5.2,6.4-7.8c4.5-5.5,9-11,13.5-16.4C369.1,241,366.7,238.6,365.4,240.2z"/>
		<path id="XMLID_376_" class="st9" d="M350.7,85.2c-49,6.8-130.7,1-130.7,1c-0.5-0.9-0.9-1.8-1.3-2.6
			c21.2,0.9,115.5,3.7,121.9-12.7c3.6-9.3,3.6-19.5,2.6-27.3c7.7,1.8,11.9,3.4,11.9,3.4C359.5,62,350.7,85.2,350.7,85.2z"/>
		<path id="XMLID_375_" class="st10" d="M269.6,48.7c-6.5-3.1-15.9-0.2-22.9,0.4c-7.8,0.7-16.6,1.4-23.2,5.9c-3,2-2.2,7.6,2,7.3
			c8.4-0.6,16.8-2.3,25.2-3.3c6.7-0.7,15.6-0.7,19.9-6.7C271.3,51.3,270.8,49.2,269.6,48.7z"/>
		<path id="XMLID_374_" class="st10" d="M266.1,10.9c0-0.1-0.1-0.2-0.1-0.2c-0.9-1.7-2.8-1.8-4.4-1.1c-3.9,1.7-4.5,7.6-4.7,11.2
			c-0.3,4.5,0.3,9.3,4.4,11.9c1.1,0.7,3.2,0.3,3.8-1c1.6-3.8,0.6-7.5,0.6-11.6c0-1.9,0.1-3.8,0.4-5.7
			C266.2,13.1,266.8,12.1,266.1,10.9z"/>
		<path id="XMLID_373_" class="st9" d="M304.7,38.3c-5,6.2-29.1-0.9-30.1-1.2c0.9,0.2,16.2,3,28.1-0.5c0,0,4.9-10.1,4.2-22.9
			C306.8,13.7,309.8,32,304.7,38.3z"/>
	</g>
	<g id="XMLID_32_">
		<g id="XMLID_95_">
			<path id="XMLID_371_" class="st11" d="M105.5,203.5c0,0,2.8,40.8,4.3,73.7c0.8,17.6-6.2,69.5-6.2,69.5H91.8
				c0,0,1.6-47.8,0.8-63.7c-0.6-12.4-7.9-45.6-7.9-45.6l-6.2,2l-29.1,105l-12.9-1.4l20.8-134.3L105.5,203.5z"/>
			<path id="XMLID_370_" class="st12" d="M60.3,213.7l43.3-2.1c0,0-5.8-30.1-6.9-30.7c-1.1-0.6-20.8,0-20.8,0L60.3,213.7z"/>
			<path id="XMLID_367_" class="st13" d="M77.3,58.6c0,0-23.9-0.9-26.1,15.9c-2.6,20.5,10.4,32.2,17.9,32.2
				c17.7,0,4.1-28.3,4.1-28.3L77.3,58.6z"/>
			<path id="XMLID_366_" class="st13" d="M70.7,107.5c0,0-2.2,0.1-4.4,1.5c0,0,0.9-4.7,3.7-4.6C70,104.4,72.1,105.2,70.7,107.5z"/>
			<polygon id="XMLID_363_" class="st14" points="56.2,216.5 104.6,216 104.1,210.9 57.1,211.7 			"/>
			<path id="XMLID_360_" class="st11" d="M107.2,121.4c9,3,12.8,31.8,24.2,35.1c5.6,1.6,30.8-16.1,30.8-16.1l3.4,9.2
				c0,0-19.4,24.7-34.1,24.7c-17.7,0-29.3-26-29.3-26S102.1,126.8,107.2,121.4z"/>
			<path id="XMLID_357_" class="st3" d="M69.2,105.7l0.1,12.6l-3.2,0.3c0,0-3.5,10.7,0.7,14.8s19.2,11.3,19.2,11.3l5.9-15l-5.2-11.9
				h-4l0.2-11.1C82.7,106.7,70.8,97.9,69.2,105.7z"/>
			<path id="XMLID_538_" class="st15" d="M82.7,106.7l-0.1,3.4c-3.5,1.4-11.2,1.4-13.5-2l0-2.4C70.8,97.9,82.7,106.7,82.7,106.7z"/>
			<path id="XMLID_354_" class="st11" d="M108.2,216.6H97.7l-7-21.2l-7.5,21.8H51.5l1.1-39l-9.9-55c0,0,21.3-5.4,23.3-4.7
				c3.5,1.3,5.7,7.7,13.7,6.1c8-1.6,6.8-6.9,6.8-6.9l21,3.7L108.2,216.6z"/>
			<path id="XMLID_351_" class="st11" d="M42.7,123.2c0,0-31.5,25.3-31.4,43.6c0,10.4,15.2,0.4,15.2,0.4c3.2-6.6,23-18.1,23-18.1
				S46.4,128.7,42.7,123.2z"/>
			<path id="XMLID_348_" class="st3" d="M87.1,67.8c7.2,5.4,7.2,8.9,6.1,17.6c-0.2,1.6,1,5.2,1.1,7C94.7,104.9,83.5,109,79,109
				c-6.2,0-15.5-4.1-17.2-13.9c0,0-3,2.6-5.9-2.5c-3.3-5.6,2-11.6,6-6.2c0,0-3.8-12.5,7-18.7C79.6,61.6,87.1,67.8,87.1,67.8z"/>
			<path id="XMLID_347_" class="st15" d="M57.3,86.9c0,0,2.1-0.9,2.8,1.1c0.7,2,0.9,4.7-0.8,4.7c-1.1,0-2.4-1.6-1.9-2.8
				c0.5-1.2,2-0.4,2-0.4S59.6,86.7,57.3,86.9z"/>
			<g id="XMLID_316_">
				<path id="XMLID_318_" class="st13" d="M86.8,86.5c0,0,1.8-4.2,5.9-0.9C92.8,85.6,89.5,85.1,86.8,86.5z"/>
				<path id="XMLID_317_" class="st13" d="M88.9,85.4c0,0-1.2,1.4-0.3,2.4s2.4,0.4,2.7-0.6c0.2-0.8-0.2-1.7-0.5-1.8
					C90.6,85.3,88.9,85.4,88.9,85.4z"/>
			</g>
			<path id="XMLID_313_" class="st16" d="M69.9,91.1c-1,0.2-1.4,1.4-1.5,2.3c0,0.1,0.2,0.2,0.3,0.1c0.3-0.4,0.6-0.8,0.8-1.2
				C69.7,91.9,69.9,91.6,69.9,91.1C70,91.1,69.9,91.1,69.9,91.1z"/>
			<path id="XMLID_310_" class="st16" d="M71.6,92.1c-0.1-0.1-0.2-0.1-0.3-0.1c-0.5,0.3-0.7,1.4-0.6,1.9c0.1,0.2,0.2,0.2,0.3,0.1
				c0.3-0.3,0.4-0.6,0.5-1C71.6,92.6,71.8,92.4,71.6,92.1z"/>
			<path id="XMLID_307_" class="st16" d="M73.9,92.2c-0.1-0.3-0.4-0.2-0.5,0c-0.2,0.6-0.2,1.3-0.1,1.8c0.1,0.2,0.3,0.2,0.4,0.1
				C74,93.5,74,92.8,73.9,92.2z"/>
			<path id="XMLID_304_" class="st16" d="M89.2,91.3c-0.3-0.3-0.8,0.1-0.6,0.4c0.3,0.5,0.5,1.1,0.8,1.5c0.1,0.1,0.4,0.1,0.4-0.1
				C90.1,92.5,89.7,91.8,89.2,91.3z"/>
			<path id="XMLID_300_" class="st16" d="M91.3,91.4c-0.2-0.5-0.9-0.3-0.7,0.2c0.2,0.6,0.4,1.1,0.9,1.5c0.1,0.1,0.3,0,0.3-0.2
				C91.8,92.4,91.5,92,91.3,91.4z"/>
			<path id="XMLID_299_" class="st15" d="M83,84.1c0,0,7.2,9.4,6,11.1c-1.2,1.7-7.2,3.4-7.2,3.4s5.8-3.7,5.6-4.5
				C87.4,93.3,83,84.1,83,84.1z"/>
			<path id="XMLID_297_" class="st17" d="M70.9,132.5c0,0,15.2,34.1,15.4,34.7c0.1,0.6,0.8-38,0.8-38l-7.3-4.5L70.9,132.5z"/>
			<path id="XMLID_293_" class="st14" d="M91.8,346.7c0,0-3.7,9.8-1.4,11.7c5.5,4.4,31.9,2.6,34.6-0.2c3.7-3.9-21.3-11.5-21.3-11.5
				L91.8,346.7L91.8,346.7z"/>
			<path id="XMLID_492_" class="st14" d="M49.4,344.3c0,0,0.9,9.1-0.9,11.8c-3.9,5.7-16,18.2-21.6,14.9c-4.4-2.6,9.7-28,9.7-28
				L49.4,344.3z"/>
			<path id="XMLID_282_" class="st18" d="M64.7,118.6l21.5,48.6l-25.2-22.5l6.7-4.5l-10.1,1.7l-8.3-20.4
				C49.4,121.6,57.7,118.6,64.7,118.6z"/>
			<path id="XMLID_278_" class="st18" d="M86.5,117.2l-0.3,50l10.1-26.6l-6-1.5l8.1-2.3l2.9-16.4C101.4,120.4,94,116.6,86.5,117.2z"
				/>
			<polygon id="XMLID_275_" class="st12" points="69.2,111.5 67.8,112.9 64.7,118.6 68.4,134.7 79.8,124.7 			"/>
			<polygon id="XMLID_274_" class="st12" points="79.8,124.7 82.6,112.2 86.5,117.2 89.6,130.7 			"/>
			<polygon id="XMLID_271_" class="st5" points="74.7,129.1 79,132.7 83,132 84.2,127.4 79.8,124.7 			"/>
			<polygon id="XMLID_268_" class="st5" points="79,132.7 80,153.2 86.2,167.2 86.3,151.9 83,132 			"/>
			<path id="XMLID_265_" class="st18" d="M87.1,179.1c-2.9,0-3,4.6,0,4.6C90,183.7,90,179.1,87.1,179.1z"/>
			<path id="XMLID_264_" class="st13" d="M85.3,82.1l0.3,1.3l7.6-1.8C93.2,81.7,89.3,79.9,85.3,82.1z"/>
			<g id="XMLID_290_">
				<path id="XMLID_497_" class="st13" d="M75.9,87c0,0-1.8-4.2-5.9-0.9C70,86.1,73.3,85.6,75.9,87z"/>
				<path id="XMLID_496_" class="st13" d="M73.8,85.9c0,0,1.2,1.4,0.3,2.4s-2.4,0.4-2.7-0.6c-0.2-0.8,0.2-1.7,0.5-1.8
					C72.1,85.8,73.8,85.9,73.8,85.9z"/>
			</g>
			<path id="XMLID_287_" class="st13" d="M76.8,82.1l-0.3,1.3L69,81.7C69,81.7,72.8,79.9,76.8,82.1z"/>
			<path id="XMLID_263_" class="st15" d="M84.3,101c0,0-5.3,0.9-9.2-1.9c0,0,0.9,2.3,4.3,3C81.5,102.5,84.3,101,84.3,101z"/>
			<path id="XMLID_260_" class="st13" d="M61.8,86.5c0,0-0.2-11.4,4.3-12.6c4.5-1.3,20.6-3.5,27.7,3.2c0,0,6.4-6.1,2.8-12
				c0,0-0.8,4-2.3,5.2c0,0-0.8-11.9-6.5-11.9c0,0,0,0,0.5,4.3c0,0-6.4-7.5-19.1-2.6c-8.6,3.3-13.5,11.1-11.9,19.2L61.8,86.5z"/>
			<path id="XMLID_257_" class="st14" d="M82.6,72.3c0,0-2.6-6.1-4.4-3.1c-1.8,3,0.8,7,0.8,7S78.6,70,82.6,72.3z"/>
			<g id="XMLID_276_">
				<path id="XMLID_301_" class="st19" d="M49.4,82c0,0-3.4-17.9-7.3-24.7c0,0-16.8-3.6-32.1,8c0,0,0.6,20.1,3.4,25.2
					C16.2,95.7,49.4,82,49.4,82z"/>
				<polygon id="XMLID_298_" class="st20" points="80.3,366.6 88.8,306.1 53.3,109 18.1,116.6 51.6,313 				"/>
				<polygon id="XMLID_295_" class="st21" points="88.8,306.1 82,316.4 75.1,307.3 42.1,110.4 53.3,109 				"/>
				<polygon id="XMLID_292_" class="st22" points="51.6,313 60.6,316.5 64.8,309.6 28.9,113.8 18.1,116.6 				"/>
				<polygon id="XMLID_289_" class="st23" points="75.1,307.3 70.6,315.8 64.8,309.6 28.9,113.8 42.1,110.4 				"/>
				<path id="XMLID_286_" class="st5" d="M68.7,345c6.7-1.8,14.8-1.5,14.8-1.5l-3.3,23.1L68.7,345z"/>
				<path id="XMLID_283_" class="st24" d="M56.2,111.5c0,0-30.3,6.6-40.2,7.6c-2.2-7.2-7.3-32.1-5-34.2c2.2-2,36.5-12.9,39.1-7.4
					C58.4,95.5,56.2,111.5,56.2,111.5z"/>
				<path id="XMLID_280_" class="st25" d="M13.6,109.6c-0.1-0.6-0.3-1.3-0.4-2c9-3.2,33.3-8.1,42.9-9c0.1,0.9,0.2,1.8,0.3,2.7
					C49.9,102.8,23.5,108.4,13.6,109.6z"/>
				<path id="XMLID_277_" class="st25" d="M11.2,96.9c-0.1-0.8-0.2-1.5-0.3-2.2c9.9-3.3,33.7-8,42.4-8.7c0.3,0.8,0.5,1.7,0.7,2.5
					C50.8,89.3,22.6,95.4,11.2,96.9z"/>
			</g>
			<path id="XMLID_202_" class="st11" d="M12.5,160.1c-0.8,2.3-1.2,4.6-1.2,6.7c0,10.4,18.5,20.9,18.5,20.9l4.8-8.9
				c0,0-9.5-9.9-9.1-16.1C26,153.2,13,158.8,12.5,160.1z"/>
			<path id="XMLID_96_" class="st3" d="M39.1,192.9c-5.3,0.3-9.3-5.2-9.3-5.2l5-8.6c0,0,7.3,0.9,9.8,1.4c2.5,0.4,5.5,1.1,6.8,2.8
				c1.3,1.7,3.7,5.4,1.7,5.5c-1.5,0.1-2.8-3.9-4.9-4.3c-2.1-0.4-3.9-1.2-4.2-0.6c-0.2,0.4,4.4,1.1,5.2,2.8c1,2,3.6,4.1,2.4,4.9
				c-2.1,1.4-3.4-3-5.4-3.8c-1.6-0.6-3.6-2-4.1-1.2c-0.2,0.3,3.3,1.4,4.6,3.2c1.4,2.1,3.1,3.3,2.2,3.9c-1.1,0.9-2.5-0.3-4.7-2.4
				c-2-1.9-3.9-2.1-4.1-1.7c-0.1,0.2,1.4,0.6,2.7,1.6c1.5,1.1,2.9,2.8,2.3,3.4c-1,1.1-1.9-0.4-3.3-1.1
				C40.6,193,39.1,192.9,39.1,192.9z"/>
		</g>
		<polygon id="XMLID_94_" class="st15" points="167,135.6 162.1,140.4 166,140.2 		"/>
		<path id="XMLID_91_" class="st3" d="M165.6,149.6c0,0,2,0.9,4.4-2c1.2-1.5-0.2-6-0.6-7.8c-0.2-0.6,0-1.3,1.1-2.5
			c2.9-3.1,2.9-5.5,1.2-6.4c-1.6-0.9-4.3,4.4-5.5,6.1c-0.8,1.1-4,3.5-4,3.5L165.6,149.6z"/>
	</g>
	
		<image style="overflow:visible;enable-background:new    ;" width="1995" height="3319" xlink:href="84B5B655.png"  transform="matrix(1.440000e-02 0 0 1.440000e-02 326.5241 91.5533)">
	</image>
	<g>
		<g>
			<path class="st5" d="M210.1,138.8c-0.8,0-1.4-0.2-1.8-0.7c-0.4-0.5-0.6-1.2-0.6-2.2c0-0.6,0.1-1.2,0.2-1.6s0.4-0.8,0.8-1
				c0.4-0.2,0.8-0.3,1.4-0.3c0.6,0,1,0.1,1.4,0.3s0.6,0.6,0.8,1c0.2,0.4,0.2,1,0.2,1.6c0,1-0.2,1.7-0.6,2.2
				C211.6,138.6,211,138.8,210.1,138.8z M209.2,132.1c-0.2,0-0.4-0.1-0.5-0.2c-0.1-0.1-0.2-0.3-0.2-0.5c0-0.2,0.1-0.4,0.2-0.5
				c0.1-0.1,0.3-0.2,0.5-0.2c0.2,0,0.4,0.1,0.5,0.2c0.1,0.1,0.2,0.3,0.2,0.5s-0.1,0.4-0.2,0.5C209.6,132.1,209.4,132.1,209.2,132.1z
				 M210.1,137.7c0.2,0,0.4-0.1,0.6-0.2c0.1-0.1,0.2-0.3,0.3-0.5s0.1-0.4,0.1-0.6s0-0.4,0-0.6c0-0.2,0-0.4,0-0.6s-0.1-0.4-0.1-0.6
				c-0.1-0.2-0.2-0.3-0.3-0.5c-0.1-0.1-0.3-0.2-0.6-0.2c-0.2,0-0.4,0.1-0.6,0.2c-0.1,0.1-0.2,0.3-0.3,0.4c-0.1,0.2-0.1,0.4-0.1,0.6
				c0,0.2,0,0.4,0,0.6c0,0.2,0,0.4,0,0.6s0.1,0.4,0.1,0.6s0.2,0.4,0.3,0.5C209.7,137.6,209.9,137.7,210.1,137.7z M211.1,132.1
				c-0.2,0-0.4-0.1-0.5-0.2s-0.2-0.3-0.2-0.5c0-0.2,0.1-0.4,0.2-0.5s0.3-0.2,0.5-0.2c0.2,0,0.4,0.1,0.5,0.2s0.2,0.3,0.2,0.5
				s-0.1,0.4-0.2,0.5S211.3,132.1,211.1,132.1z"/>
			<path class="st5" d="M214.4,141.4c-0.2,0-0.3,0-0.4-0.1s-0.2-0.1-0.3-0.2s-0.1-0.2-0.1-0.2c0.2-0.2,0.4-0.4,0.5-0.6
				c0.1-0.2,0.2-0.5,0.3-0.7c0.1-0.3,0.1-0.6,0.1-0.9v-5.1c0-0.2,0.1-0.4,0.2-0.5s0.3-0.2,0.5-0.2c0.2,0,0.4,0.1,0.5,0.2
				s0.2,0.3,0.2,0.5v5.1c0,0.3,0,0.6-0.1,1c-0.1,0.3-0.1,0.6-0.3,0.9s-0.3,0.5-0.4,0.6S214.6,141.4,214.4,141.4z M215.8,138.7v-1.1
				h1.3v1.1H215.8z M217.2,138.7v-1.1c0.1,0,0.2,0.1,0.2,0.1c0,0.1,0.1,0.2,0.1,0.4s0,0.3-0.1,0.4S217.3,138.7,217.2,138.7z"/>
			<path class="st5" d="M217.2,138.7c-0.1,0-0.1-0.1-0.2-0.1s-0.1-0.2-0.1-0.4s0-0.3,0.1-0.4c0-0.1,0.1-0.1,0.2-0.1V138.7z
				 M217.2,138.7v-1.1h3.7c0.3,0,0.5-0.1,0.7-0.3c0.2-0.2,0.2-0.6,0.2-1.1c0-0.8-0.2-1.3-0.5-1.6c-0.4-0.3-0.9-0.5-1.6-0.5
				c-0.1,0-0.2,0-0.4,0c-0.1,0-0.3,0-0.4,0c-0.1,0-0.2,0-0.4,0c-0.2,0-0.4-0.1-0.6-0.1c-0.1-0.1-0.3-0.2-0.3-0.4s-0.1-0.3-0.1-0.5
				c0-0.1,0-0.2,0-0.3c0-0.1,0.1-0.1,0.1-0.1c0.1,0.1,0.2,0.2,0.3,0.3s0.4,0.1,0.6,0.1c0.1,0,0.2,0,0.3,0s0.3,0,0.4,0
				c0.1,0,0.3,0,0.4,0c0.6,0,1.1,0.1,1.6,0.2s0.8,0.4,1.1,0.7s0.5,0.6,0.6,1s0.2,0.8,0.2,1.2c0,0.6-0.1,1.1-0.3,1.5
				s-0.5,0.6-0.9,0.8c-0.3,0.2-0.7,0.2-1.1,0.2L217.2,138.7L217.2,138.7z M219.9,141.2c-0.2,0-0.4-0.1-0.6-0.2
				c-0.2-0.2-0.2-0.3-0.2-0.6c0-0.2,0.1-0.4,0.2-0.6c0.2-0.2,0.4-0.2,0.6-0.2c0.2,0,0.4,0.1,0.6,0.2c0.2,0.2,0.2,0.4,0.2,0.6
				c0,0.2-0.1,0.4-0.2,0.6C220.3,141.2,220.1,141.2,219.9,141.2z"/>
			<path class="st5" d="M231.3,141.5c-0.8,0-1.4-0.1-1.9-0.4s-1-0.6-1.2-1.1s-0.4-1-0.4-1.6c0-0.2,0-0.5,0.1-0.8s0.1-0.6,0.2-0.8
				s0.3-0.5,0.5-0.6c0.2-0.2,0.4-0.3,0.7-0.3c0.2,0,0.3,0,0.4,0.1s0.2,0.1,0.3,0.2c0.1,0.1,0.1,0.2,0.1,0.2
				c-0.2,0.2-0.4,0.4-0.5,0.6s-0.2,0.4-0.3,0.7s-0.1,0.5-0.1,0.8c0,0.6,0.2,1.1,0.6,1.4c0.4,0.3,1,0.5,1.7,0.5
				c0.6,0,1.1-0.1,1.4-0.4c0.3-0.3,0.4-0.8,0.4-1.5v-4.9c0-0.2,0-0.4,0.2-0.5s0.3-0.2,0.5-0.2s0.4,0.1,0.5,0.2s0.2,0.3,0.2,0.5v4.9
				c0,0.9-0.2,1.7-0.8,2.2C233.2,141.3,232.4,141.5,231.3,141.5z M231.1,132.9c-0.2,0-0.4-0.1-0.6-0.2c-0.2-0.2-0.2-0.3-0.2-0.6
				c0-0.2,0.1-0.4,0.2-0.6c0.2-0.2,0.4-0.2,0.6-0.2c0.2,0,0.4,0.1,0.5,0.2c0.2,0.2,0.2,0.4,0.2,0.6c0,0.2-0.1,0.4-0.2,0.6
				C231.5,132.9,231.3,132.9,231.1,132.9z M235.3,138.7c-0.4,0-0.8-0.1-1.2-0.3s-0.6-0.5-0.8-0.8c-0.2-0.3-0.3-0.7-0.3-1.2h1.4
				c0,0.2,0,0.4,0.1,0.6c0.1,0.2,0.2,0.3,0.3,0.5c0.1,0.1,0.3,0.2,0.5,0.2h0.5v1.1L235.3,138.7L235.3,138.7z M235.9,138.7v-1.1
				c0.1,0,0.1,0.1,0.2,0.1c0,0.1,0,0.2,0,0.4s0,0.3,0,0.4S236,138.7,235.9,138.7z"/>
			<path class="st5" d="M235.9,138.7c-0.1,0-0.1-0.1-0.2-0.1s0-0.2,0-0.4s0-0.3,0-0.4c0-0.1,0.1-0.1,0.2-0.1V138.7z M235.9,138.7
				v-1.1h0.5c0.2,0,0.4-0.1,0.5-0.2s0.2-0.3,0.3-0.5s0.1-0.4,0.1-0.6v-2.8c0-0.2,0-0.4,0.2-0.5s0.3-0.2,0.5-0.2
				c0.2,0,0.4,0.1,0.5,0.2c0.1,0.1,0.2,0.3,0.2,0.5v2.8c0,0.4-0.1,0.8-0.3,1.2c-0.2,0.3-0.5,0.6-0.8,0.8c-0.3,0.2-0.7,0.3-1.2,0.3
				L235.9,138.7L235.9,138.7z M237,141.2c-0.2,0-0.4-0.1-0.5-0.2s-0.2-0.3-0.2-0.5c0-0.2,0.1-0.4,0.2-0.5c0.1-0.1,0.3-0.2,0.5-0.2
				c0.2,0,0.4,0.1,0.5,0.2c0.1,0.1,0.2,0.3,0.2,0.5c0,0.2-0.1,0.4-0.2,0.5C237.4,141.1,237.2,141.2,237,141.2z M239.5,138.7
				c-0.4,0-0.8-0.1-1.2-0.3c-0.3-0.2-0.6-0.5-0.8-0.8c-0.2-0.3-0.3-0.7-0.3-1.2h1.4c0,0.2,0,0.4,0.1,0.6c0.1,0.2,0.2,0.3,0.3,0.5
				c0.1,0.1,0.3,0.2,0.5,0.2h0.5v1.1L239.5,138.7L239.5,138.7z M238.9,141.2c-0.2,0-0.4-0.1-0.5-0.2s-0.2-0.3-0.2-0.5
				c0-0.2,0.1-0.4,0.2-0.5c0.1-0.1,0.3-0.2,0.5-0.2c0.2,0,0.4,0.1,0.5,0.2c0.1,0.1,0.2,0.3,0.2,0.5c0,0.2-0.1,0.4-0.2,0.5
				C239.3,141.1,239.1,141.2,238.9,141.2z M240.1,138.7v-1.1c0.1,0,0.1,0.1,0.2,0.1c0,0.1,0,0.2,0,0.4s0,0.3,0,0.4
				S240.2,138.7,240.1,138.7z"/>
			<path class="st5" d="M240.1,138.7c-0.1,0-0.1-0.1-0.2-0.1s0-0.2,0-0.4s0-0.3,0-0.4c0-0.1,0.1-0.1,0.2-0.1V138.7z M240.1,138.7
				v-1.1h1c0.1,0,0.3,0,0.4-0.1c0.1-0.1,0.2-0.2,0.3-0.3c0.1-0.1,0.1-0.3,0.2-0.4c0-0.2,0.1-0.4,0.1-0.5c0-0.2,0-0.4,0-0.6
				c0-0.3,0-0.6-0.1-0.9c-0.1-0.3-0.1-0.5-0.3-0.7s-0.3-0.4-0.5-0.6c0-0.1,0.1-0.1,0.1-0.2s0.1-0.2,0.3-0.2s0.2-0.1,0.4-0.1
				c0.3,0,0.5,0.1,0.7,0.2s0.3,0.4,0.5,0.6c0.1,0.3,0.2,0.6,0.2,0.9s0.1,0.6,0.1,1c0,0.9-0.2,1.7-0.6,2.2s-1,0.8-1.8,0.8
				L240.1,138.7L240.1,138.7z M242,132.2c-0.2,0-0.4-0.1-0.6-0.2c-0.2-0.2-0.2-0.3-0.2-0.6c0-0.2,0.1-0.4,0.2-0.6
				c0.2-0.2,0.4-0.2,0.6-0.2c0.2,0,0.4,0.1,0.5,0.2c0.2,0.2,0.2,0.4,0.2,0.6c0,0.2-0.1,0.4-0.2,0.6
				C242.4,132.1,242.2,132.2,242,132.2z"/>
			<path class="st5" d="M246.1,138.7c-0.3,0-0.5-0.1-0.5-0.2c-0.1-0.2-0.1-0.4-0.1-0.6v-5.4c0-0.3,0-0.5-0.1-0.6
				c-0.1-0.2-0.2-0.3-0.2-0.4s-0.2-0.1-0.2-0.2c0-0.1,0.1-0.1,0.1-0.2s0.2-0.2,0.3-0.2c0.1-0.1,0.3-0.1,0.5-0.1
				c0.2,0,0.4,0.1,0.5,0.2c0.2,0.1,0.3,0.3,0.4,0.5c0.1,0.2,0.1,0.5,0.1,0.8v5.8c0,0.2,0,0.4-0.1,0.5
				C246.6,138.6,246.4,138.7,246.1,138.7z"/>
			<path class="st5" d="M250.6,138.7c-0.5,0-0.9-0.1-1.3-0.3s-0.7-0.6-0.9-1s-0.3-0.9-0.3-1.6c0-0.9,0.2-1.6,0.8-2.1s1.2-0.8,2-0.8
				c0.6,0,1.1,0.1,1.5,0.4s0.6,0.6,0.6,0.9v4.4h-1.4v-4.4c0-0.1-0.1-0.1-0.2-0.2s-0.3-0.1-0.5-0.1c-0.5,0-0.8,0.1-1,0.4
				s-0.4,0.7-0.4,1.3c0,0.6,0.1,1,0.4,1.3s0.6,0.5,1,0.5h2.1v1.1L250.6,138.7L250.6,138.7z M251.5,141.4c-0.2,0-0.3,0-0.4-0.1
				c-0.1-0.1-0.2-0.1-0.3-0.2s-0.1-0.2-0.1-0.2c0.2-0.2,0.4-0.4,0.5-0.6c0.1-0.2,0.2-0.5,0.3-0.7c0-0.3,0.1-0.6,0.1-0.9v-1.1h1.4
				v1.1c0,0.3,0,0.6-0.1,1c0,0.3-0.1,0.6-0.2,0.9s-0.3,0.5-0.5,0.6S251.8,141.4,251.5,141.4z M253,138.7v-1.1h1v1.1H253z M254,138.7
				v-1.1c0.1,0,0.1,0.1,0.2,0.1c0,0.1,0,0.2,0,0.4s0,0.3,0,0.4C254.2,138.6,254.1,138.7,254,138.7z"/>
			<path class="st5" d="M254,138.7c-0.1,0-0.1-0.1-0.2-0.1c0-0.1,0-0.2,0-0.4s0-0.3,0-0.4c0-0.1,0.1-0.1,0.2-0.1V138.7z M254,138.7
				v-1.1h3.3c0.3,0,0.6-0.1,0.7-0.3s0.3-0.5,0.3-0.9v-2.2c0-0.1-0.1-0.1-0.2-0.2s-0.3-0.1-0.5-0.1c-0.5,0-0.8,0.1-1,0.4
				s-0.4,0.7-0.4,1.3c0,0.6,0.1,1,0.4,1.3s0.6,0.5,1,0.5l-0.2,1.1c-0.5-0.1-0.9-0.2-1.2-0.4s-0.7-0.5-0.9-0.9
				c-0.2-0.4-0.3-0.9-0.3-1.5c0-0.9,0.2-1.6,0.8-2.1c0.5-0.5,1.2-0.8,2-0.8c0.6,0,1.1,0.1,1.5,0.4c0.4,0.2,0.6,0.6,0.6,0.9v2.2
				c0,0.4-0.1,0.8-0.3,1.2c-0.2,0.3-0.5,0.6-0.8,0.8c-0.4,0.2-0.8,0.3-1.2,0.3L254,138.7L254,138.7z M256.7,132.1
				c-0.2,0-0.4-0.1-0.5-0.2c-0.1-0.1-0.2-0.3-0.2-0.5c0-0.2,0.1-0.4,0.2-0.5c0.1-0.1,0.3-0.2,0.5-0.2c0.2,0,0.4,0.1,0.5,0.2
				c0.1,0.1,0.2,0.3,0.2,0.5s-0.1,0.4-0.2,0.5C257.1,132.1,256.9,132.1,256.7,132.1z M258.6,132.1c-0.2,0-0.4-0.1-0.5-0.2
				c-0.1-0.1-0.2-0.3-0.2-0.5c0-0.2,0.1-0.4,0.2-0.5c0.1-0.1,0.3-0.2,0.5-0.2c0.2,0,0.4,0.1,0.5,0.2c0.1,0.1,0.2,0.3,0.2,0.5
				s-0.1,0.4-0.2,0.5S258.8,132.1,258.6,132.1z"/>
			<path class="st5" d="M263.8,138.7c-0.5,0-0.9-0.1-1.3-0.3s-0.7-0.6-0.9-1c-0.2-0.4-0.3-0.9-0.3-1.6c0-0.9,0.2-1.6,0.8-2.1
				s1.2-0.8,2-0.8c0.6,0,1.1,0.1,1.5,0.4c0.4,0.2,0.6,0.6,0.6,0.9v4.4h-1.4v-4.4c0-0.1-0.1-0.1-0.2-0.2s-0.3-0.1-0.5-0.1
				c-0.5,0-0.8,0.1-1,0.4s-0.4,0.7-0.4,1.3c0,0.6,0.1,1,0.4,1.3s0.6,0.5,1,0.5h2.1v1.1L263.8,138.7L263.8,138.7z M264.7,141.4
				c-0.2,0-0.3,0-0.4-0.1c-0.1-0.1-0.2-0.1-0.3-0.2s-0.1-0.2-0.1-0.2c0.2-0.2,0.4-0.4,0.5-0.6c0.1-0.2,0.2-0.5,0.3-0.7
				s0.1-0.6,0.1-0.9v-1.1h1.4v1.1c0,0.3,0,0.6-0.1,1c0,0.3-0.1,0.6-0.2,0.9s-0.3,0.5-0.5,0.6S264.9,141.4,264.7,141.4z"/>
			<path class="st5" d="M273.1,138.7c-0.8,0-1.3-0.3-1.8-0.8s-0.6-1.3-0.6-2.2c0-0.3,0-0.6,0.1-1c0.1-0.3,0.1-0.6,0.2-0.9
				c0.1-0.3,0.3-0.5,0.5-0.6s0.4-0.2,0.7-0.2c0.2,0,0.3,0,0.4,0.1c0.1,0.1,0.2,0.1,0.3,0.2s0.1,0.2,0.1,0.2
				c-0.2,0.2-0.4,0.4-0.5,0.6s-0.2,0.4-0.3,0.7c-0.1,0.3-0.1,0.5-0.1,0.9c0,0.2,0,0.4,0,0.6s0,0.4,0.1,0.5c0,0.2,0.1,0.3,0.2,0.4
				s0.2,0.2,0.3,0.3c0.1,0.1,0.2,0.1,0.4,0.1h3.3c0.2,0,0.4-0.1,0.5-0.2s0.2-0.3,0.3-0.5s0.1-0.4,0.1-0.6v-2.2c0-0.2,0-0.4,0.2-0.5
				c0.1-0.1,0.3-0.2,0.5-0.2c0.2,0,0.4,0.1,0.5,0.2c0.1,0.1,0.2,0.3,0.2,0.5v2.2c0,0.4-0.1,0.8-0.3,1.2c-0.2,0.3-0.5,0.6-0.8,0.8
				c-0.3,0.2-0.7,0.3-1.2,0.3L273.1,138.7L273.1,138.7z M273.8,132.7c-0.2,0-0.4-0.1-0.5-0.2c-0.1-0.1-0.2-0.3-0.2-0.5
				c0-0.2,0.1-0.4,0.2-0.5c0.1-0.1,0.3-0.2,0.5-0.2c0.2,0,0.4,0.1,0.5,0.2c0.1,0.1,0.2,0.3,0.2,0.5s-0.1,0.4-0.2,0.5
				C274.2,132.6,274,132.7,273.8,132.7z M275.6,132.7c-0.2,0-0.4-0.1-0.5-0.2c-0.1-0.1-0.2-0.3-0.2-0.5c0-0.2,0.1-0.4,0.2-0.5
				c0.1-0.1,0.3-0.2,0.5-0.2c0.2,0,0.4,0.1,0.5,0.2c0.1,0.1,0.2,0.3,0.2,0.5s-0.1,0.4-0.2,0.5C276,132.6,275.9,132.7,275.6,132.7z"
				/>
			<path class="st5" d="M283,138.7c-0.4,0-0.8-0.1-1.2-0.3c-0.3-0.2-0.6-0.5-0.8-0.8c-0.2-0.3-0.3-0.7-0.3-1.2v-3.9
				c0-0.3,0-0.5-0.1-0.6c-0.1-0.2-0.2-0.3-0.2-0.4s-0.2-0.1-0.2-0.2c0-0.1,0.1-0.1,0.1-0.2s0.2-0.2,0.3-0.2c0.1-0.1,0.3-0.1,0.5-0.1
				c0.2,0,0.4,0.1,0.5,0.2c0.2,0.1,0.3,0.3,0.4,0.5s0.1,0.5,0.1,0.8v4.2c0,0.2,0,0.4,0.1,0.6c0.1,0.2,0.2,0.3,0.3,0.5
				c0.1,0.1,0.3,0.2,0.5,0.2h0.3v1.1L283,138.7L283,138.7z M283.3,138.7v-1.1c0.1,0,0.2,0.1,0.2,0.1c0,0.1,0,0.2,0,0.4s0,0.3,0,0.4
				S283.4,138.7,283.3,138.7z"/>
			<path class="st5" d="M283.3,138.7c-0.1,0-0.1-0.1-0.2-0.1c0-0.1,0-0.2,0-0.4s0-0.3,0-0.4c0-0.1,0.1-0.1,0.2-0.1V138.7z
				 M283.3,138.7v-1.1h0.5c0.2,0,0.4-0.1,0.5-0.2c0.1-0.1,0.2-0.3,0.3-0.5s0.1-0.4,0.1-0.6v-2.1c0-0.2,0-0.4,0.2-0.5
				c0.1-0.1,0.3-0.2,0.5-0.2c0.2,0,0.4,0.1,0.5,0.2c0.1,0.1,0.2,0.3,0.2,0.5v2.1c0,0.4-0.1,0.8-0.3,1.2c-0.2,0.3-0.5,0.6-0.8,0.8
				c-0.3,0.2-0.7,0.3-1.2,0.3L283.3,138.7L283.3,138.7z M286.9,138.7c-0.4,0-0.8-0.1-1.2-0.3c-0.3-0.2-0.6-0.5-0.8-0.8
				c-0.2-0.3-0.3-0.7-0.3-1.2h1.4c0,0.2,0,0.4,0.1,0.6c0.1,0.2,0.2,0.3,0.3,0.5s0.3,0.2,0.5,0.2h0.2v1.1L286.9,138.7L286.9,138.7z
				 M287.1,138.7v-1.1h0.4c0.2,0,0.4-0.1,0.5-0.2s0.2-0.3,0.3-0.5s0.1-0.4,0.1-0.6V134c0-0.2,0-0.4,0.2-0.5c0.1-0.1,0.3-0.2,0.5-0.2
				c0.2,0,0.4,0.1,0.5,0.2c0.1,0.1,0.2,0.3,0.2,0.5v2.4c0,0.4-0.1,0.8-0.3,1.2c-0.2,0.3-0.5,0.6-0.8,0.8c-0.3,0.2-0.7,0.3-1.2,0.3
				L287.1,138.7L287.1,138.7z M290.7,138.7c-0.4,0-0.8-0.1-1.2-0.3s-0.6-0.5-0.8-0.8c-0.2-0.3-0.3-0.7-0.3-1.2h1.4
				c0,0.2,0,0.4,0.1,0.6c0.1,0.2,0.2,0.3,0.3,0.5s0.3,0.2,0.5,0.2h0.4v1.1L290.7,138.7L290.7,138.7z M291.1,138.7v-1.1h0.3
				c0.2,0,0.3,0,0.4-0.1s0.2-0.2,0.3-0.3s0.1-0.3,0.2-0.4c0-0.2,0.1-0.4,0.1-0.5c0-0.2,0-0.4,0-0.6c0-0.3,0-0.6-0.1-0.9
				c-0.1-0.3-0.1-0.5-0.3-0.7s-0.3-0.4-0.5-0.6c0-0.1,0.1-0.1,0.1-0.2s0.1-0.2,0.3-0.2s0.2-0.1,0.4-0.1c0.3,0,0.5,0.1,0.7,0.2
				c0.2,0.2,0.3,0.4,0.5,0.6c0.1,0.3,0.2,0.6,0.3,0.9s0.1,0.6,0.1,1c0,0.9-0.2,1.7-0.6,2.2s-1,0.8-1.8,0.8L291.1,138.7L291.1,138.7z
				"/>
			<path class="st5" d="M298,138.7c-0.4,0-0.8-0.1-1.2-0.3c-0.3-0.2-0.6-0.5-0.8-0.8c-0.2-0.3-0.3-0.7-0.3-1.2v-3.9
				c0-0.3,0-0.5-0.1-0.6c-0.1-0.2-0.2-0.3-0.2-0.4s-0.2-0.1-0.2-0.2c0-0.1,0.1-0.1,0.1-0.2s0.2-0.2,0.3-0.2c0.1-0.1,0.3-0.1,0.5-0.1
				c0.2,0,0.4,0.1,0.5,0.2c0.2,0.1,0.3,0.3,0.4,0.5s0.1,0.5,0.1,0.8v4.2c0,0.2,0,0.4,0.1,0.6c0.1,0.2,0.2,0.3,0.3,0.5
				c0.1,0.1,0.3,0.2,0.5,0.2h0.3v1.1L298,138.7L298,138.7z M298.4,138.7v-1.1c0.1,0,0.2,0.1,0.2,0.1c0,0.1,0,0.2,0,0.4s0,0.3,0,0.4
				S298.5,138.7,298.4,138.7z"/>
			<path class="st5" d="M298.4,138.7c-0.1,0-0.1-0.1-0.2-0.1c0-0.1,0-0.2,0-0.4s0-0.3,0-0.4c0-0.1,0.1-0.1,0.2-0.1V138.7z
				 M298.4,138.7v-1.1h0.5c0.2,0,0.4-0.1,0.5-0.2s0.2-0.3,0.3-0.5s0.1-0.4,0.1-0.6v-2.8c0-0.2,0-0.4,0.2-0.5
				c0.1-0.1,0.3-0.2,0.5-0.2c0.2,0,0.4,0.1,0.5,0.2s0.2,0.3,0.2,0.5v2.8c0,0.4-0.1,0.8-0.3,1.2c-0.2,0.3-0.5,0.6-0.8,0.8
				c-0.3,0.2-0.7,0.3-1.2,0.3L298.4,138.7L298.4,138.7z M299.5,141.2c-0.2,0-0.4-0.1-0.5-0.2s-0.2-0.3-0.2-0.5
				c0-0.2,0.1-0.4,0.2-0.5s0.3-0.2,0.5-0.2c0.2,0,0.4,0.1,0.5,0.2s0.2,0.3,0.2,0.5c0,0.2-0.1,0.4-0.2,0.5
				C299.9,141.1,299.7,141.2,299.5,141.2z M302,138.7c-0.4,0-0.8-0.1-1.2-0.3c-0.3-0.2-0.6-0.5-0.8-0.8c-0.2-0.3-0.3-0.7-0.3-1.2
				h1.4c0,0.2,0,0.4,0.1,0.6c0.1,0.2,0.2,0.3,0.3,0.5c0.1,0.1,0.3,0.2,0.5,0.2h0.5v1.1L302,138.7L302,138.7z M301.4,141.2
				c-0.2,0-0.4-0.1-0.5-0.2s-0.2-0.3-0.2-0.5c0-0.2,0.1-0.4,0.2-0.5c0.1-0.1,0.3-0.2,0.5-0.2c0.2,0,0.4,0.1,0.5,0.2
				c0.1,0.1,0.2,0.3,0.2,0.5c0,0.2-0.1,0.4-0.2,0.5C301.8,141.1,301.6,141.2,301.4,141.2z M302.6,138.7v-1.1c0.1,0,0.1,0.1,0.2,0.1
				c0,0.1,0,0.2,0,0.4s0,0.3,0,0.4S302.6,138.7,302.6,138.7z"/>
			<path class="st5" d="M302.6,138.7c-0.1,0-0.1-0.1-0.2-0.1c0-0.1,0-0.2,0-0.4s0-0.3,0-0.4c0-0.1,0.1-0.1,0.2-0.1V138.7z
				 M302.6,138.7v-1.1h0.5c0.2,0,0.4-0.1,0.5-0.2c0.1-0.1,0.2-0.3,0.3-0.5s0.1-0.4,0.1-0.6v-2.1c0-0.2,0-0.4,0.2-0.5
				c0.1-0.1,0.3-0.2,0.5-0.2c0.2,0,0.4,0.1,0.5,0.2c0.1,0.1,0.2,0.3,0.2,0.5v2.1c0,0.4-0.1,0.8-0.3,1.2c-0.2,0.3-0.5,0.6-0.8,0.8
				c-0.3,0.2-0.7,0.3-1.2,0.3L302.6,138.7L302.6,138.7z M306.2,138.7c-0.4,0-0.8-0.1-1.2-0.3c-0.3-0.2-0.6-0.5-0.8-0.8
				c-0.2-0.3-0.3-0.7-0.3-1.2h1.4c0,0.2,0,0.4,0.1,0.6c0.1,0.2,0.2,0.3,0.3,0.5s0.3,0.2,0.5,0.2h0.2v1.1L306.2,138.7L306.2,138.7z
				 M306.4,138.7v-1.1h0.4c0.2,0,0.4-0.1,0.5-0.2s0.2-0.3,0.3-0.5s0.1-0.4,0.1-0.6V134c0-0.2,0-0.4,0.2-0.5c0.1-0.1,0.3-0.2,0.5-0.2
				c0.2,0,0.4,0.1,0.5,0.2c0.1,0.1,0.2,0.3,0.2,0.5v2.4c0,0.4-0.1,0.8-0.3,1.2c-0.2,0.3-0.5,0.6-0.8,0.8c-0.3,0.2-0.7,0.3-1.2,0.3
				L306.4,138.7L306.4,138.7z M310,138.7c-0.4,0-0.8-0.1-1.2-0.3s-0.6-0.5-0.8-0.8c-0.2-0.3-0.3-0.7-0.3-1.2h1.4
				c0,0.2,0,0.4,0.1,0.6c0.1,0.2,0.2,0.3,0.3,0.5s0.3,0.2,0.5,0.2h0.4v1.1L310,138.7L310,138.7z M310.3,138.7v-1.1h0.3
				c0.2,0,0.3,0,0.4-0.1s0.2-0.2,0.3-0.3s0.1-0.3,0.2-0.4c0-0.2,0.1-0.4,0.1-0.5c0-0.2,0-0.4,0-0.6c0-0.3,0-0.6-0.1-0.9
				c-0.1-0.3-0.1-0.5-0.3-0.7s-0.3-0.4-0.5-0.6c0-0.1,0.1-0.1,0.1-0.2s0.1-0.2,0.3-0.2s0.2-0.1,0.4-0.1c0.3,0,0.5,0.1,0.7,0.2
				c0.2,0.2,0.3,0.4,0.5,0.6c0.1,0.3,0.2,0.6,0.3,0.9s0.1,0.6,0.1,1c0,0.9-0.2,1.7-0.6,2.2s-1,0.8-1.8,0.8L310.3,138.7L310.3,138.7z
				"/>
		</g>
	</g>
	<g>
		<g>
			<path class="st4" d="M295.1,127.2v-0.3c0.2,0,0.5-0.1,0.6-0.3s0.3-0.4,0.4-0.7s0.1-0.8,0.1-1.3v-6.9h1.4v6.9
				c0,0.7-0.1,1.2-0.2,1.6c-0.1,0.4-0.4,0.6-0.8,0.8C296.2,127.2,295.7,127.2,295.1,127.2z"/>
			<path class="st4" d="M300.8,125.7c-0.3,0-0.5,0-0.8-0.1s-0.4-0.2-0.6-0.3s-0.3-0.3-0.4-0.5s-0.1-0.4-0.1-0.7c0-0.4,0.1-0.7,0.3-1
				c0.2-0.3,0.6-0.4,1-0.6c0.5-0.1,1.1-0.2,1.8-0.2h0.2c0-0.5,0-0.9-0.1-1.2c-0.1-0.3-0.2-0.5-0.4-0.6c-0.2-0.1-0.4-0.2-0.6-0.2
				c-0.3,0-0.6,0.1-0.8,0.2s-0.4,0.4-0.5,0.9h-0.6c0-0.2,0-0.4,0-0.6s0.1-0.4,0.3-0.5c0.1-0.2,0.4-0.3,0.7-0.3s0.7-0.1,1.1-0.1
				c0.3,0,0.7,0,0.9,0.1c0.3,0.1,0.5,0.2,0.7,0.4s0.4,0.4,0.5,0.8c0.1,0.3,0.2,0.7,0.2,1.2v3.2h-0.9l-0.4-0.5h-0.1
				c-0.1,0.2-0.3,0.3-0.5,0.4C301.5,125.6,301.2,125.7,300.8,125.7z M301.2,125.1c0.3,0,0.5-0.1,0.7-0.2c0.2-0.2,0.3-0.3,0.4-0.5
				v-1.6h-0.2c-0.6,0-1,0.1-1.3,0.3s-0.4,0.5-0.4,0.9c0,0.4,0.1,0.6,0.3,0.8C300.8,125,301,125.1,301.2,125.1z"/>
			<path class="st4" d="M305.3,125.6v-4.1c0-0.4,0-0.6-0.1-0.9c-0.1-0.2-0.3-0.3-0.7-0.3h-0.1V120h1.1c0.3,0,0.5,0,0.6,0.1
				c0.2,0.1,0.3,0.2,0.4,0.4c0.1-0.1,0.3-0.3,0.6-0.4s0.6-0.2,0.9-0.2c0.1,0,0.3,0,0.4,0.1c0.1,0,0.3,0.1,0.4,0.2
				c0.1,0.1,0.2,0.2,0.3,0.3c0.1,0.1,0.1,0.2,0.1,0.2l-0.6,0.4c-0.1-0.1-0.2-0.2-0.4-0.3c-0.1-0.1-0.3-0.1-0.5-0.1
				c-0.2,0-0.5,0-0.6,0.1c-0.2,0.1-0.3,0.2-0.5,0.3c0,0.1,0,0.2,0,0.3s0,0.1,0,0.2v4.1L305.3,125.6L305.3,125.6z"/>
			<path class="st4" d="M311.6,125.7c-0.3,0-0.5,0-0.8-0.1s-0.4-0.2-0.6-0.3s-0.3-0.3-0.4-0.5s-0.1-0.4-0.1-0.7c0-0.4,0.1-0.7,0.3-1
				c0.2-0.3,0.6-0.4,1-0.6s1.1-0.2,1.8-0.2h0.2c0-0.5,0-0.9-0.1-1.2c-0.1-0.3-0.2-0.5-0.4-0.6c-0.2-0.1-0.4-0.2-0.6-0.2
				c-0.3,0-0.6,0.1-0.8,0.2s-0.4,0.4-0.5,0.9h-0.6c0-0.2,0-0.4,0-0.6s0.1-0.4,0.3-0.5c0.1-0.2,0.4-0.3,0.7-0.3s0.7-0.1,1.1-0.1
				c0.3,0,0.7,0,0.9,0.1c0.3,0.1,0.5,0.2,0.7,0.4s0.4,0.4,0.5,0.8c0.1,0.3,0.2,0.7,0.2,1.2v3.2h-0.9l-0.4-0.5h-0.1
				c-0.1,0.2-0.3,0.3-0.5,0.4C312.3,125.6,312,125.7,311.6,125.7z M312,125.1c0.3,0,0.5-0.1,0.7-0.2c0.2-0.2,0.3-0.3,0.4-0.5v-1.6
				h-0.2c-0.6,0-1,0.1-1.3,0.3s-0.4,0.5-0.4,0.9c0,0.4,0.1,0.6,0.3,0.8C311.6,125,311.8,125.1,312,125.1z"/>
		</g>
	</g>
	<g>
		<g>
			<path class="st5" d="M280.4,111.8c-0.8,0-1.4-0.2-1.8-0.7c-0.4-0.5-0.6-1.2-0.6-2.2c0-0.6,0.1-1.2,0.2-1.6s0.4-0.8,0.8-1
				s0.8-0.3,1.4-0.3c0.6,0,1,0.1,1.4,0.3c0.4,0.2,0.6,0.6,0.8,1s0.2,1,0.2,1.6c0,1-0.2,1.7-0.6,2.2S281.2,111.8,280.4,111.8z
				 M279.5,105.2c-0.2,0-0.4-0.1-0.5-0.2s-0.2-0.3-0.2-0.5c0-0.2,0.1-0.4,0.2-0.5s0.3-0.2,0.5-0.2c0.2,0,0.4,0.1,0.5,0.2
				s0.2,0.3,0.2,0.5s-0.1,0.4-0.2,0.5S279.7,105.2,279.5,105.2z M280.4,110.8c0.2,0,0.4-0.1,0.6-0.2c0.1-0.1,0.2-0.3,0.3-0.5
				s0.1-0.4,0.1-0.6c0-0.2,0-0.4,0-0.6c0-0.2,0-0.4,0-0.6s-0.1-0.4-0.1-0.6c-0.1-0.2-0.2-0.3-0.3-0.5c-0.1-0.1-0.3-0.2-0.6-0.2
				c-0.2,0-0.4,0.1-0.5,0.2c-0.1,0.1-0.2,0.3-0.3,0.4c-0.1,0.2-0.1,0.4-0.1,0.6c0,0.2,0,0.4,0,0.6c0,0.2,0,0.4,0,0.6
				c0,0.2,0.1,0.4,0.1,0.6s0.2,0.4,0.3,0.5C280,110.7,280.2,110.8,280.4,110.8z M281.3,105.2c-0.2,0-0.4-0.1-0.5-0.2
				c-0.1-0.1-0.2-0.3-0.2-0.5c0-0.2,0.1-0.4,0.2-0.5c0.1-0.1,0.3-0.2,0.5-0.2c0.2,0,0.4,0.1,0.5,0.2c0.1,0.1,0.2,0.3,0.2,0.5
				s-0.1,0.4-0.2,0.5C281.7,105.1,281.5,105.2,281.3,105.2z"/>
			<path class="st5" d="M284.6,114.5c-0.2,0-0.3,0-0.4-0.1c-0.1-0.1-0.2-0.1-0.3-0.2s-0.1-0.2-0.1-0.2c0.2-0.2,0.4-0.4,0.5-0.6
				c0.1-0.2,0.2-0.5,0.3-0.7c0.1-0.3,0.1-0.6,0.1-0.9v-5.1c0-0.2,0.1-0.4,0.2-0.5s0.3-0.2,0.5-0.2s0.4,0.1,0.5,0.2s0.2,0.3,0.2,0.5
				v5.1c0,0.3,0,0.6-0.1,1c-0.1,0.3-0.1,0.6-0.3,0.9s-0.3,0.5-0.5,0.6C285.1,114.4,284.9,114.5,284.6,114.5z M286.1,111.7v-1.1h1.3
				v1.1H286.1z M287.4,111.7v-1.1c0.1,0,0.2,0.1,0.2,0.1c0,0.1,0,0.2,0,0.4s0,0.3,0,0.4S287.5,111.7,287.4,111.7z"/>
			<path class="st5" d="M287.4,111.7c-0.1,0-0.1-0.1-0.2-0.1s0-0.2,0-0.4s0-0.3,0-0.4c0-0.1,0.1-0.1,0.2-0.1V111.7z M287.4,111.7
				v-1.1h1.8v1.1H287.4z M289.2,111.7v-1.1c0.1,0,0.1,0.1,0.2,0.1c0,0.1,0,0.2,0,0.4s0,0.3,0,0.4S289.3,111.7,289.2,111.7z"/>
			<path class="st5" d="M289.2,111.7c-0.1,0-0.1-0.1-0.2-0.1s0-0.2,0-0.4s0-0.3,0-0.4c0-0.1,0.1-0.1,0.2-0.1V111.7z M289.2,111.7
				v-1.1h1.8v1.1H289.2z M291.1,111.7v-1.1c0.1,0,0.1,0.1,0.2,0.1c0,0.1,0,0.2,0,0.4s0,0.3,0,0.4S291.2,111.7,291.1,111.7z"/>
			<path class="st5" d="M291.1,111.7c-0.1,0-0.1-0.1-0.2-0.1s0-0.2,0-0.4s0-0.3,0-0.4c0-0.1,0.1-0.1,0.2-0.1V111.7z M291.1,111.7
				v-1.1h1.8v1.1H291.1z M292.9,111.7v-1.1c0.1,0,0.1,0.1,0.2,0.1c0,0.1,0,0.2,0,0.4s0,0.3,0,0.4S293,111.7,292.9,111.7z"/>
			<path class="st5" d="M292.9,111.7c-0.1,0-0.1-0.1-0.2-0.1s0-0.2,0-0.4s0-0.3,0-0.4c0-0.1,0.1-0.1,0.2-0.1V111.7z M292.9,111.7
				v-1.1h1.8v1.1H292.9z M294.8,111.7v-1.1c0.1,0,0.1,0.1,0.2,0.1c0,0.1,0,0.2,0,0.4s0,0.3,0,0.4S294.8,111.7,294.8,111.7z"/>
			<path class="st5" d="M294.8,111.7c-0.1,0-0.1-0.1-0.2-0.1s0-0.2,0-0.4s0-0.3,0-0.4c0-0.1,0.1-0.1,0.2-0.1V111.7z M294.8,111.7
				v-1.1h1.8v1.1H294.8z M296.6,111.7v-1.1c0.1,0,0.1,0.1,0.2,0.1c0,0.1,0,0.2,0,0.4s0,0.3,0,0.4S296.7,111.7,296.6,111.7z"/>
			<path class="st5" d="M296.6,111.7c-0.1,0-0.1-0.1-0.2-0.1s0-0.2,0-0.4s0-0.3,0-0.4c0-0.1,0.1-0.1,0.2-0.1V111.7z M296.6,111.7
				v-1.1h1.8v1.1H296.6z M298.4,111.7v-1.1c0.1,0,0.1,0.1,0.2,0.1c0,0.1,0,0.2,0,0.4s0,0.3,0,0.4S298.5,111.7,298.4,111.7z"/>
			<path class="st5" d="M298.4,111.7c-0.1,0-0.1-0.1-0.2-0.1s0-0.2,0-0.4s0-0.3,0-0.4c0-0.1,0.1-0.1,0.2-0.1V111.7z M298.4,111.7
				v-1.1h1.8v1.1H298.4z M300.3,111.7v-1.1c0.1,0,0.1,0.1,0.2,0.1c0,0.1,0,0.2,0,0.4s0,0.3,0,0.4S300.3,111.7,300.3,111.7z"/>
			<path class="st5" d="M300.3,111.7c-0.1,0-0.1-0.1-0.2-0.1s0-0.2,0-0.4s0-0.3,0-0.4c0-0.1,0.1-0.1,0.2-0.1V111.7z M300.3,111.7
				v-1.1h1.8v1.1H300.3z M302.1,111.7v-1.1c0.1,0,0.1,0.1,0.2,0.1c0,0.1,0,0.2,0,0.4s0,0.3,0,0.4S302.2,111.7,302.1,111.7z"/>
			<path class="st5" d="M302.1,111.7c-0.1,0-0.1-0.1-0.2-0.1s0-0.2,0-0.4s0-0.3,0-0.4c0-0.1,0.1-0.1,0.2-0.1V111.7z M302.1,111.7
				v-1.1h1.8v1.1H302.1z M303.9,111.7v-1.1c0.1,0,0.1,0.1,0.2,0.1c0,0.1,0,0.2,0,0.4s0,0.3,0,0.4S304,111.7,303.9,111.7z"/>
			<path class="st5" d="M303.9,111.7c-0.1,0-0.1-0.1-0.2-0.1s0-0.2,0-0.4s0-0.3,0-0.4c0-0.1,0.1-0.1,0.2-0.1V111.7z M303.9,111.7
				v-1.1h1.8v1.1H303.9z M305.8,111.7v-1.1c0.1,0,0.1,0.1,0.2,0.1c0,0.1,0,0.2,0,0.4s0,0.3,0,0.4S305.9,111.7,305.8,111.7z"/>
			<path class="st5" d="M305.8,111.7c-0.1,0-0.1-0.1-0.2-0.1s0-0.2,0-0.4s0-0.3,0-0.4c0-0.1,0.1-0.1,0.2-0.1V111.7z M305.8,111.7
				v-1.1h1.8v1.1H305.8z M307.6,111.7v-1.1c0.1,0,0.1,0.1,0.2,0.1c0,0.1,0,0.2,0,0.4s0,0.3,0,0.4S307.7,111.7,307.6,111.7z"/>
			<path class="st5" d="M307.6,111.7c-0.1,0-0.1-0.1-0.2-0.1s0-0.2,0-0.4s0-0.3,0-0.4c0-0.1,0.1-0.1,0.2-0.1V111.7z M307.6,111.7
				v-1.1h1.8v1.1H307.6z M309.4,111.7v-1.1c0.1,0,0.1,0.1,0.2,0.1c0,0.1,0,0.2,0,0.4s0,0.3,0,0.4S309.5,111.7,309.4,111.7z"/>
			<path class="st5" d="M309.4,111.7c-0.1,0-0.1-0.1-0.2-0.1s0-0.2,0-0.4s0-0.3,0-0.4c0-0.1,0.1-0.1,0.2-0.1V111.7z M309.4,111.7
				v-1.1h3.7c0.3,0,0.5-0.1,0.7-0.3s0.2-0.6,0.2-1.1c0-0.8-0.2-1.3-0.5-1.6c-0.4-0.3-0.9-0.5-1.6-0.5c-0.1,0-0.2,0-0.4,0
				c-0.1,0-0.3,0-0.4,0c-0.1,0-0.2,0-0.4,0c-0.2,0-0.4-0.1-0.6-0.1c-0.1-0.1-0.3-0.2-0.3-0.4c-0.1-0.2-0.1-0.3-0.1-0.5
				c0-0.1,0-0.2,0-0.3c0-0.1,0.1-0.1,0.1-0.1c0.1,0.1,0.2,0.2,0.3,0.3s0.4,0.1,0.6,0.1c0.1,0,0.2,0,0.3,0s0.3,0,0.4,0s0.3,0,0.4,0
				c0.6,0,1.1,0.1,1.6,0.2c0.4,0.2,0.8,0.4,1.1,0.7s0.5,0.6,0.6,1s0.2,0.8,0.2,1.2c0,0.6-0.1,1.1-0.3,1.5s-0.5,0.6-0.9,0.8
				c-0.3,0.2-0.7,0.2-1.1,0.2L309.4,111.7L309.4,111.7z M312.2,114.3c-0.2,0-0.4-0.1-0.6-0.2c-0.2-0.2-0.2-0.3-0.2-0.6
				c0-0.2,0.1-0.4,0.2-0.6c0.2-0.2,0.4-0.2,0.6-0.2c0.2,0,0.4,0.1,0.5,0.2c0.2,0.2,0.2,0.4,0.2,0.6c0,0.2-0.1,0.4-0.2,0.6
				C312.6,114.2,312.4,114.3,312.2,114.3z"/>
		</g>
	</g>
</g>
<g id="DESIGNED_BY_FREEPIK">
</g>
</svg>
