<svg xmlns="http://www.w3.org/2000/svg" viewBox="0 0 577.31 236.87"><defs><style>.cls-1{fill:#ec9d12;}.cls-2{fill:#3f3f3f;}</style></defs><g id="Layer_2" data-name="Layer 2"><g id="Layer_7" data-name="Layer 7"><polygon class="cls-1" points="350.37 155.74 435.24 187.54 577.31 119.84 434.48 233.68 350.37 155.74"/><polygon class="cls-2" points="434.42 178.04 434.48 81.11 380.32 102.14 380.32 158.15 434.42 178.04"/><path class="cls-2" d="M444.05,89.82l.11,12.6,14.15,6.1s0-8.85-.07-11S444.05,89.82,444.05,89.82Z" transform="translate(-3.9)"/><path class="cls-2" d="M444.05,109.83l.11,12.61,14.15,6.1s0-8.85-.07-11S444.05,109.83,444.05,109.83Z" transform="translate(-3.9)"/><path class="cls-2" d="M444.05,129.85l.11,12.61,14.15,6.1s0-8.85-.07-11S444.05,129.85,444.05,129.85Z" transform="translate(-3.9)"/><path class="cls-2" d="M462.7,98.17l.11,12.61,14.15,6.1s0-8.85-.07-11S462.7,98.17,462.7,98.17Z" transform="translate(-3.9)"/><path class="cls-2" d="M462.7,118.19l.11,12.6,14.15,6.1s0-8.84-.07-11S462.7,118.19,462.7,118.19Z" transform="translate(-3.9)"/><path class="cls-2" d="M462.7,138.21l.11,12.6,14.15,6.1s0-8.85-.07-11S462.7,138.21,462.7,138.21Z" transform="translate(-3.9)"/><path class="cls-2" d="M508.34,60.82l.11,12.61,14.16,6.1s0-8.85-.07-11S508.34,60.82,508.34,60.82Z" transform="translate(-3.9)"/><path class="cls-2" d="M508.34,80.84l.11,12.6,14.16,6.1s0-8.85-.07-11S508.34,80.84,508.34,80.84Z" transform="translate(-3.9)"/><path class="cls-2" d="M508.34,100.85l.11,12.61,14.16,6.1s0-8.85-.07-11S508.34,100.85,508.34,100.85Z" transform="translate(-3.9)"/><path class="cls-2" d="M527,69.18l.11,12.6,14.16,6.1s0-8.85-.08-11S527,69.18,527,69.18Z" transform="translate(-3.9)"/><path class="cls-2" d="M527,89.19l.11,12.61,14.16,6.1s0-8.85-.08-11S527,89.19,527,89.19Z" transform="translate(-3.9)"/><path class="cls-2" d="M527,109.21l.11,12.61,14.16,6.1s0-8.85-.08-11S527,109.21,527,109.21Z" transform="translate(-3.9)"/><path class="cls-2" d="M477,8.12l.11,12.61,14.15,6.1s0-8.85-.07-11S477,8.12,477,8.12Z" transform="translate(-3.9)"/><path class="cls-2" d="M477,28.14l.11,12.6,14.15,6.1s0-8.85-.07-11S477,28.14,477,28.14Z" transform="translate(-3.9)"/><path class="cls-2" d="M495.62,16.48l.11,12.6,14.15,6.1s0-8.85-.07-11S495.62,16.48,495.62,16.48Z" transform="translate(-3.9)"/><path class="cls-2" d="M495.62,36.49l.11,12.61,14.15,6.1s0-8.85-.07-11S495.62,36.49,495.62,36.49Z" transform="translate(-3.9)"/><polygon class="cls-2" points="473.48 46.84 473.48 60.03 487.43 54.54 473.48 46.84"/><polygon class="cls-2" points="479.88 156.29 479.88 101.28 445.6 87.77 445.6 77.88 498.63 57.75 498.63 146.72 479.88 156.29"/><polygon class="cls-2" points="462.12 62.77 462.12 19.97 408.29 40.34 408.29 85.41 462.12 62.77"/><polygon class="cls-2" points="413.42 35.14 470.88 13.52 470.88 0 416.59 19.97 413.42 35.14"/><path class="cls-1" d="M17.55,222a13.3,13.3,0,0,1-6.89-1.85,13.07,13.07,0,0,1-4.94-5.37,18.18,18.18,0,0,1-1.82-8.45Q3.9,199,8,194.88t11.08-4.09a15.28,15.28,0,0,1,8.35,2.05q3.22,2,3.22,5.16v24H22.23V198a9,9,0,0,0-1.3-.22,14.79,14.79,0,0,0-1.82-.1,6.26,6.26,0,0,0-5.07,2q-1.69,2-1.69,6.63a11.64,11.64,0,0,0,1.53,6.47,5.06,5.06,0,0,0,4.52,2.31H34.77V222Zm-5.4-35.75a4.07,4.07,0,0,1-3-1.24,4.15,4.15,0,0,1,0-6,4.21,4.21,0,0,1,6,0,4.23,4.23,0,0,1-3,7.22Zm10.54,0a4.08,4.08,0,0,1-3-1.24,4.15,4.15,0,0,1,0-6,4.11,4.11,0,0,1,3-1.23,4,4,0,0,1,3,1.23,4.33,4.33,0,0,1,0,6A4,4,0,0,1,22.69,186.24ZM34.77,222V215.1c.48,0,.82.31,1,.94a10.61,10.61,0,0,1,0,5C35.59,221.67,35.25,222,34.77,222Z" transform="translate(-3.9)"/><path class="cls-1" d="M34.77,222c-.43,0-.75-.32-1-.94a9.67,9.67,0,0,1,0-5c.22-.63.54-.94,1-.94Zm0,0V215.1H60.25a3,3,0,0,0,2.18-1,4.46,4.46,0,0,0,.94-3.18,4.69,4.69,0,0,0-.94-3.28,2.87,2.87,0,0,0-2.18-1H50.18a18.1,18.1,0,0,1-7.35-1.46,13.36,13.36,0,0,1-5.29-4,9.59,9.59,0,0,1,0-11.7,13.18,13.18,0,0,1,5.29-4A17.93,17.93,0,0,1,50.18,184H63.31a9.18,9.18,0,0,0,4.42-.87,17,17,0,0,0,2.34-1.53,8.1,8.1,0,0,1-.1,2.79,10.34,10.34,0,0,1-1.1,3.06,7.31,7.31,0,0,1-2.18,2.47,5.67,5.67,0,0,1-3.38,1H50.18a7.33,7.33,0,0,0-4.45,1.27A3.86,3.86,0,0,0,44,195.34a3.78,3.78,0,0,0,1.73,3.15,7.27,7.27,0,0,0,4.45,1.27H61.55a9.86,9.86,0,0,1,5.37,1.46,10.15,10.15,0,0,1,3.6,4,13.23,13.23,0,0,1,0,11.44,9.91,9.91,0,0,1-3.6,3.93A10,10,0,0,1,61.55,222Z" transform="translate(-3.9)"/><path class="cls-1" d="M83.65,236.87a4.89,4.89,0,0,1-4.38-2.37,3.34,3.34,0,0,1-.56-1.59,12.34,12.34,0,0,0,2.34-2.34,9.82,9.82,0,0,0,1.53-3.35,20.47,20.47,0,0,0,.55-5.23V194.82a3.74,3.74,0,0,1,1.21-3,4.84,4.84,0,0,1,6.07,0,3.82,3.82,0,0,1,1.17,3V222a31.06,31.06,0,0,1-.48,5.52,21.65,21.65,0,0,1-1.43,4.78,9,9,0,0,1-2.44,3.35A5.46,5.46,0,0,1,83.65,236.87ZM91.58,222V215.1h6.7V222Zm6.7,0V215.1c.47,0,.81.31,1,.94a11,11,0,0,1,0,5C99.09,221.67,98.75,222,98.28,222Z" transform="translate(-3.9)"/><path class="cls-1" d="M98.28,222c-.43,0-.76-.32-1-.94a10,10,0,0,1,0-5c.22-.63.55-.94,1-.94Zm0,0V215.1h3.31a3.49,3.49,0,0,0,2.44-.85,5.1,5.1,0,0,0,1.4-2.17,8.23,8.23,0,0,0,.45-2.64V198.65a5.29,5.29,0,0,1,.91-2.89,4.62,4.62,0,0,1,6.63,0,5.21,5.21,0,0,1,.91,2.89v10.79a12.65,12.65,0,0,1-1.65,6.44,12,12,0,0,1-4.52,4.48,13,13,0,0,1-6.57,1.63Zm20.34,0a13.05,13.05,0,0,1-6.53-1.63,11.87,11.87,0,0,1-4.55-4.48,12.66,12.66,0,0,1-1.66-6.44h8.45a7.63,7.63,0,0,0,.46,2.6,5.1,5.1,0,0,0,1.43,2.18,3.44,3.44,0,0,0,2.4.88h1.43V222Zm1.43,0V215.1h2.47a3.49,3.49,0,0,0,2.44-.85,5.1,5.1,0,0,0,1.4-2.17,8.23,8.23,0,0,0,.45-2.64V197.09a5.29,5.29,0,0,1,.91-2.89,4.62,4.62,0,0,1,6.63,0,5.21,5.21,0,0,1,.91,2.89v12.35a12.65,12.65,0,0,1-1.65,6.44,11.93,11.93,0,0,1-4.52,4.48,13,13,0,0,1-6.57,1.63Zm5.72-35.43a4.1,4.1,0,0,1-3-1.23,4.15,4.15,0,0,1,0-6,4.18,4.18,0,0,1,5.94,0,4.22,4.22,0,0,1-3,7.21ZM139.55,222a13.05,13.05,0,0,1-6.53-1.63,11.87,11.87,0,0,1-4.55-4.48,12.66,12.66,0,0,1-1.66-6.44h8.45a8.15,8.15,0,0,0,.46,2.67,4.85,4.85,0,0,0,1.43,2.14,3.51,3.51,0,0,0,2.4.85H141V222ZM131,176.88a3.74,3.74,0,0,1-2.8-1.14,4.06,4.06,0,0,1,0-5.56,3.74,3.74,0,0,1,2.73-1.1,3.92,3.92,0,0,1,2.83,1.1,3.92,3.92,0,0,1-2.76,6.7Zm5.26,9.68a4.1,4.1,0,0,1-3-1.23,4.15,4.15,0,0,1,0-6,4.23,4.23,0,1,1,3,7.21ZM141,222V215.1h2.47a3.49,3.49,0,0,0,2.44-.85,5.1,5.1,0,0,0,1.4-2.17,8.23,8.23,0,0,0,.45-2.64V195.08a5.26,5.26,0,0,1,.91-2.89,4.62,4.62,0,0,1,6.63,0,5.18,5.18,0,0,1,.91,2.89v14.36a12.65,12.65,0,0,1-1.65,6.44,12,12,0,0,1-4.52,4.48,13,13,0,0,1-6.57,1.63Zm19.5,0a13.05,13.05,0,0,1-6.53-1.63,11.87,11.87,0,0,1-4.55-4.48,12.66,12.66,0,0,1-1.66-6.44h8.45a8,8,0,0,0,.46,2.64,4.89,4.89,0,0,0,1.43,2.17,3.51,3.51,0,0,0,2.4.85h3.32V222Zm3.32,0V215.1c.47,0,.81.31,1,.94a11,11,0,0,1,0,5C164.61,221.67,164.27,222,163.8,222Z" transform="translate(-3.9)"/><path class="cls-1" d="M163.8,222c-.43,0-.76-.32-1-.94a10,10,0,0,1,0-5c.22-.63.55-.94,1-.94Zm0,0V215.1h3.31a3.49,3.49,0,0,0,2.44-.85,5.1,5.1,0,0,0,1.4-2.17,8.23,8.23,0,0,0,.45-2.64v-20.8a7.29,7.29,0,0,0-.58-3.38,3.12,3.12,0,0,0-1.3-1.36l-1.11-.52a4.07,4.07,0,0,1,.49-1.59,5.21,5.21,0,0,1,1.63-1.86,4.94,4.94,0,0,1,3-.84,5.54,5.54,0,0,1,3.35,1,6.62,6.62,0,0,1,2.17,2.76,9.82,9.82,0,0,1,.78,4v22.55a12.65,12.65,0,0,1-1.65,6.44,12,12,0,0,1-4.52,4.48,13,13,0,0,1-6.57,1.63Z" transform="translate(-3.9)"/><path class="cls-1" d="M194.09,222a3.67,3.67,0,0,1-3.32-1.4,5.48,5.48,0,0,1-.91-3V188.64a7.29,7.29,0,0,0-.58-3.38,3.12,3.12,0,0,0-1.3-1.36l-1.11-.52a4.26,4.26,0,0,1,.49-1.56,5.2,5.2,0,0,1,1.63-1.89,5.05,5.05,0,0,1,3.08-.84,5.44,5.44,0,0,1,3.29,1,6.62,6.62,0,0,1,2.17,2.76,9.82,9.82,0,0,1,.78,4V217.7a5.18,5.18,0,0,1-.91,2.89A3.65,3.65,0,0,1,194.09,222Z" transform="translate(-3.9)"/><path class="cls-2" d="M223.47,236.87a4.87,4.87,0,0,1-2.28-.48,4.19,4.19,0,0,1-1.43-1.21,3.93,3.93,0,0,1-.65-1.17A13,13,0,0,0,222,230.7a12.77,12.77,0,0,0,1.49-3.93A23.72,23.72,0,0,0,224,222V194.36a3.29,3.29,0,0,1,1-2.69,4,4,0,0,1,2.66-.88,4,4,0,0,1,2.67.88,3.33,3.33,0,0,1,1,2.69V222a31,31,0,0,1-.46,5.23,21.34,21.34,0,0,1-1.4,4.84,9.34,9.34,0,0,1-2.43,3.51A5.34,5.34,0,0,1,223.47,236.87Z" transform="translate(-3.9)"/><path class="cls-2" d="M253.82,222a12.24,12.24,0,0,1-6.34-1.63,11.76,11.76,0,0,1-4.35-4.42,12.63,12.63,0,0,1-1.59-6.37V188.64a8.4,8.4,0,0,0-.59-3.47,5.32,5.32,0,0,0-1.36-1.92,14.67,14.67,0,0,0-1.3-1,4.27,4.27,0,0,1,.65-1.2,4.72,4.72,0,0,1,1.56-1.36,4.93,4.93,0,0,1,2.6-.62,5.27,5.27,0,0,1,2.92.84,5.85,5.85,0,0,1,2.08,2.54,9.9,9.9,0,0,1,.78,4.16v22.94a9.28,9.28,0,0,0,.52,3,5.77,5.77,0,0,0,1.63,2.5,4,4,0,0,0,2.79,1h1.82V222Zm1.82,0v-5.92a1,1,0,0,1,1,.78,7.18,7.18,0,0,1,.26,2.15,7.54,7.54,0,0,1-.26,2.18A1,1,0,0,1,255.64,222Z" transform="translate(-3.9)"/><path class="cls-2" d="M255.64,222a1,1,0,0,1-1-.81,6.79,6.79,0,0,1-.29-2.18,6.47,6.47,0,0,1,.29-2.15,1,1,0,0,1,1-.78Zm0,0v-5.92h11.18a22,22,0,0,0,7-1.1,23.22,23.22,0,0,0,6-3,14.74,14.74,0,0,0,4.16-4.22,9,9,0,0,0,1.5-4.85,5.28,5.28,0,0,0-2.34-4.61c-1.56-1.08-3.93-1.63-7.09-1.63s-5.47.53-7.05,1.6a5.24,5.24,0,0,0-2.37,4.64,8.86,8.86,0,0,0,1.52,4.85,15.42,15.42,0,0,0,4.16,4.22,22.52,22.52,0,0,0,6,3,22.11,22.11,0,0,0,6.95,1.1h11.18V222H285.28a30.76,30.76,0,0,1-9.1-1.43,32.2,32.2,0,0,1-8.45-4,22.22,22.22,0,0,1-6.17-6,13.32,13.32,0,0,1-2.34-7.58,9.94,9.94,0,0,1,1.49-5.55,11.68,11.68,0,0,1,4-3.77,19.44,19.44,0,0,1,5.46-2.15,25.76,25.76,0,0,1,11.76,0,19.86,19.86,0,0,1,5.43,2.11,11.86,11.86,0,0,1,4,3.74,9.94,9.94,0,0,1,1.53,5.62,13.44,13.44,0,0,1-2.31,7.58,22,22,0,0,1-6.14,6,32.35,32.35,0,0,1-8.45,4,31,31,0,0,1-9.17,1.43Zm40.82,0v-5.92a1,1,0,0,1,1,.78,6.47,6.47,0,0,1,.29,2.15,6.79,6.79,0,0,1-.29,2.18A1,1,0,0,1,296.46,222Z" transform="translate(-3.9)"/><path class="cls-2" d="M296.46,222a1,1,0,0,1-1-.81,6.79,6.79,0,0,1-.29-2.18,6.47,6.47,0,0,1,.29-2.15,1,1,0,0,1,1-.78Zm0,0v-5.92h2.47a4.05,4.05,0,0,0,2.83-1,6,6,0,0,0,1.59-2.5,9.28,9.28,0,0,0,.52-3v-11.5a4,4,0,0,1,.88-2.63,3.41,3.41,0,0,1,2.82-1.08,3.37,3.37,0,0,1,2.77,1.08,4,4,0,0,1,.87,2.63v11.5a12.63,12.63,0,0,1-1.59,6.37,11.83,11.83,0,0,1-4.32,4.42,12.15,12.15,0,0,1-6.37,1.63Zm19.69,0a12.18,12.18,0,0,1-6.33-1.63,11.78,11.78,0,0,1-4.36-4.42,12.63,12.63,0,0,1-1.59-6.37h7.34a9.56,9.56,0,0,0,.52,3,5.65,5.65,0,0,0,1.66,2.5,4.1,4.1,0,0,0,2.76,1h1.24V222Zm1.24,0v-5.92h1.88a4,4,0,0,0,2.77-1,6,6,0,0,0,1.59-2.5,9.28,9.28,0,0,0,.52-3V196.51a4,4,0,0,1,.88-2.63,3.41,3.41,0,0,1,2.82-1.08,3.46,3.46,0,0,1,2.8,1.08,3.9,3.9,0,0,1,.91,2.63v13.06a12.63,12.63,0,0,1-1.59,6.37,11.86,11.86,0,0,1-4.36,4.42,12.19,12.19,0,0,1-6.34,1.63Zm5.46-35.43a3.93,3.93,0,0,1-2.83-1.17,4,4,0,0,1,0-5.68,3.77,3.77,0,0,1,2.76-1.21,3.81,3.81,0,0,1,2.86,1.21,4.08,4.08,0,0,1,0,5.68A3.79,3.79,0,0,1,322.85,186.56Zm5-9.1a3.51,3.51,0,0,1-2.63-1.1,3.72,3.72,0,0,1-1.07-2.67,3.71,3.71,0,1,1,7.41,0,3.72,3.72,0,0,1-1.07,2.67A3.53,3.53,0,0,1,327.85,177.46ZM336.43,222a12.22,12.22,0,0,1-6.3-1.63,11.72,11.72,0,0,1-4.39-4.42,12.63,12.63,0,0,1-1.59-6.37h7.41a9.28,9.28,0,0,0,.52,3,5.84,5.84,0,0,0,1.62,2.5,4,4,0,0,0,2.73,1h2.15V222Zm-3.51-35.43a3.91,3.91,0,0,1-2.82-1.17,4.05,4.05,0,0,1,2.82-6.89,3.71,3.71,0,0,1,2.83,1.21,4.11,4.11,0,0,1,0,5.68A3.79,3.79,0,0,1,332.92,186.56ZM338.58,222v-5.92h1.75a3.82,3.82,0,0,0,2.25-.65,5.61,5.61,0,0,0,1.59-1.69,9.4,9.4,0,0,0,1-2.4,17.4,17.4,0,0,0,.55-2.89,28.23,28.23,0,0,0,.16-3,22.26,22.26,0,0,0-.45-4.68,12.64,12.64,0,0,0-1.5-3.83,11.91,11.91,0,0,0-2.92-3.25,3.42,3.42,0,0,1,.65-1.2,4.15,4.15,0,0,1,1.46-1.17,4.78,4.78,0,0,1,2.24-.49,5.33,5.33,0,0,1,3.64,1.3,9.57,9.57,0,0,1,2.44,3.44,20.42,20.42,0,0,1,1.4,4.75,30.79,30.79,0,0,1,.45,5.26q0,7.68-3.41,12.06a11.43,11.43,0,0,1-9.59,4.39Z" transform="translate(-3.9)"/></g></g></svg>