<?xml version="1.0" standalone="no"?><svg xmlns="http://www.w3.org/2000/svg" viewBox="0 0 1440 320"><path fill="#0099ff" fill-opacity="1" d="M0,32L6.2,42.7C12.3,53,25,75,37,74.7C49.2,75,62,53,74,48C86.2,43,98,53,111,58.7C123.1,64,135,64,148,101.3C160,139,172,213,185,218.7C196.9,224,209,160,222,160C233.8,160,246,224,258,213.3C270.8,203,283,117,295,117.3C307.7,117,320,203,332,213.3C344.6,224,357,160,369,112C381.5,64,394,32,406,42.7C418.5,53,431,107,443,128C455.4,149,468,139,480,149.3C492.3,160,505,192,517,224C529.2,256,542,288,554,282.7C566.2,277,578,235,591,186.7C603.1,139,615,85,628,69.3C640,53,652,75,665,106.7C676.9,139,689,181,702,197.3C713.8,213,726,203,738,186.7C750.8,171,763,149,775,138.7C787.7,128,800,128,812,144C824.6,160,837,192,849,176C861.5,160,874,96,886,90.7C898.5,85,911,139,923,181.3C935.4,224,948,256,960,250.7C972.3,245,985,203,997,165.3C1009.2,128,1022,96,1034,90.7C1046.2,85,1058,107,1071,101.3C1083.1,96,1095,64,1108,53.3C1120,43,1132,53,1145,85.3C1156.9,117,1169,171,1182,165.3C1193.8,160,1206,96,1218,80C1230.8,64,1243,96,1255,112C1267.7,128,1280,128,1292,128C1304.6,128,1317,128,1329,133.3C1341.5,139,1354,149,1366,144C1378.5,139,1391,117,1403,144C1415.4,171,1428,245,1434,282.7L1440,320L1440,0L1433.8,0C1427.7,0,1415,0,1403,0C1390.8,0,1378,0,1366,0C1353.8,0,1342,0,1329,0C1316.9,0,1305,0,1292,0C1280,0,1268,0,1255,0C1243.1,0,1231,0,1218,0C1206.2,0,1194,0,1182,0C1169.2,0,1157,0,1145,0C1132.3,0,1120,0,1108,0C1095.4,0,1083,0,1071,0C1058.5,0,1046,0,1034,0C1021.5,0,1009,0,997,0C984.6,0,972,0,960,0C947.7,0,935,0,923,0C910.8,0,898,0,886,0C873.8,0,862,0,849,0C836.9,0,825,0,812,0C800,0,788,0,775,0C763.1,0,751,0,738,0C726.2,0,714,0,702,0C689.2,0,677,0,665,0C652.3,0,640,0,628,0C615.4,0,603,0,591,0C578.5,0,566,0,554,0C541.5,0,529,0,517,0C504.6,0,492,0,480,0C467.7,0,455,0,443,0C430.8,0,418,0,406,0C393.8,0,382,0,369,0C356.9,0,345,0,332,0C320,0,308,0,295,0C283.1,0,271,0,258,0C246.2,0,234,0,222,0C209.2,0,197,0,185,0C172.3,0,160,0,148,0C135.4,0,123,0,111,0C98.5,0,86,0,74,0C61.5,0,49,0,37,0C24.6,0,12,0,6,0L0,0Z"></path></svg>